<mxfile host="app.diagrams.net" modified="2024-03-05T20:25:40.995Z" agent="Mozilla/5.0 (Windows NT 10.0; Win64; x64) AppleWebKit/537.36 (KHTML, like Gecko) Chrome/122.0.0.0 Safari/537.36" etag="GGTrSeFkWEQoKCc796A1" version="24.0.1" type="github" pages="2">
  <diagram id="28FTU_59Bf2bW-88hD_B" name="ER Diagram - Group 22">
    <mxGraphModel dx="1050" dy="5238" grid="1" gridSize="10" guides="1" tooltips="1" connect="1" arrows="1" fold="1" page="1" pageScale="1" pageWidth="3300" pageHeight="4681" math="0" shadow="0">
      <root>
        <mxCell id="0" />
        <mxCell id="1" parent="0" />
        <mxCell id="hfjALMgozagow-hVVYOG-158" value="" style="endArrow=none;html=1;rounded=0;exitX=0.5;exitY=0;exitDx=0;exitDy=0;entryX=0.5;entryY=0;entryDx=0;entryDy=0;" parent="1" source="hfjALMgozagow-hVVYOG-159" target="hfjALMgozagow-hVVYOG-166" edge="1">
          <mxGeometry width="50" height="50" relative="1" as="geometry">
            <mxPoint x="1195" y="-4272.5" as="sourcePoint" />
            <mxPoint x="1245" y="-4322.5" as="targetPoint" />
            <Array as="points" />
          </mxGeometry>
        </mxCell>
        <mxCell id="hfjALMgozagow-hVVYOG-159" value="&lt;u&gt;customer_id&lt;br&gt;&lt;/u&gt;" style="ellipse;whiteSpace=wrap;html=1;fillColor=#FFFFCC;" parent="1" vertex="1">
          <mxGeometry x="1230" y="-4580" width="125" height="57" as="geometry" />
        </mxCell>
        <mxCell id="hfjALMgozagow-hVVYOG-160" style="edgeStyle=orthogonalEdgeStyle;rounded=0;orthogonalLoop=1;jettySize=auto;html=1;exitX=0.5;exitY=1;exitDx=0;exitDy=0;" parent="1" edge="1">
          <mxGeometry relative="1" as="geometry">
            <mxPoint x="1200" y="-3938.5" as="sourcePoint" />
            <mxPoint x="1200" y="-3938.5" as="targetPoint" />
          </mxGeometry>
        </mxCell>
        <mxCell id="hfjALMgozagow-hVVYOG-161" value="" style="endArrow=none;html=1;rounded=0;entryX=0.5;entryY=0;entryDx=0;entryDy=0;exitX=1;exitY=0.5;exitDx=0;exitDy=0;" parent="1" source="hfjALMgozagow-hVVYOG-162" target="hfjALMgozagow-hVVYOG-166" edge="1">
          <mxGeometry width="50" height="50" relative="1" as="geometry">
            <mxPoint x="1110" y="-4277.5" as="sourcePoint" />
            <mxPoint x="1160" y="-4347.5" as="targetPoint" />
          </mxGeometry>
        </mxCell>
        <mxCell id="hfjALMgozagow-hVVYOG-162" value="&lt;span style=&quot;-webkit-user-drag: none; -webkit-tap-highlight-color: transparent; margin: 0px; padding: 0px; user-select: text; text-align: left; background-color: rgb(255, 255, 255); font-size: 11pt; line-height: 19.425px; font-family: Calibri, Calibri_EmbeddedFont, Calibri_MSFontService, sans-serif; font-variant-ligatures: none !important;&quot; class=&quot;TextRun SCXW206521630 BCX9&quot; lang=&quot;EN-GB&quot; data-contrast=&quot;auto&quot;&gt;&lt;/span&gt;&lt;span style=&quot;-webkit-user-drag: none; -webkit-tap-highlight-color: transparent; margin: 0px; padding: 0px; user-select: text; text-align: left; background-color: rgb(255, 255, 255); font-size: 11pt; line-height: 19.425px; font-family: Calibri, Calibri_EmbeddedFont, Calibri_MSFontService, sans-serif; font-variant-ligatures: none !important;&quot; class=&quot;TextRun SCXW206521630 BCX9&quot; lang=&quot;EN-US&quot; data-contrast=&quot;auto&quot;&gt;&lt;span style=&quot;-webkit-user-drag: none; -webkit-tap-highlight-color: transparent; margin: 0px; padding: 0px; user-select: text;&quot; class=&quot;NormalTextRun SCXW206521630 BCX9&quot;&gt;customer_email&lt;/span&gt;&lt;/span&gt;" style="ellipse;whiteSpace=wrap;html=1;" parent="1" vertex="1">
          <mxGeometry x="940" y="-4324.5" width="150" height="62" as="geometry" />
        </mxCell>
        <mxCell id="hfjALMgozagow-hVVYOG-165" value="customer_phone_number" style="ellipse;whiteSpace=wrap;html=1;" parent="1" vertex="1">
          <mxGeometry x="990" y="-4490" width="160" height="62" as="geometry" />
        </mxCell>
        <mxCell id="hfjALMgozagow-hVVYOG-166" value="CUSTOMER" style="rounded=0;whiteSpace=wrap;html=1;fillColor=#CCFFFF;" parent="1" vertex="1">
          <mxGeometry x="1250" y="-4262.5" width="120" height="60" as="geometry" />
        </mxCell>
        <mxCell id="hfjALMgozagow-hVVYOG-167" value="customer_street" style="ellipse;whiteSpace=wrap;html=1;" parent="1" vertex="1">
          <mxGeometry x="1610" y="-4428" width="210" height="40" as="geometry" />
        </mxCell>
        <mxCell id="hfjALMgozagow-hVVYOG-168" value="" style="endArrow=none;html=1;rounded=0;exitX=1;exitY=0.5;exitDx=0;exitDy=0;entryX=0;entryY=0.5;entryDx=0;entryDy=0;" parent="1" source="hfjALMgozagow-hVVYOG-181" target="hfjALMgozagow-hVVYOG-167" edge="1">
          <mxGeometry width="50" height="50" relative="1" as="geometry">
            <mxPoint x="1635" y="-4297.5" as="sourcePoint" />
            <mxPoint x="1685" y="-4387.5" as="targetPoint" />
          </mxGeometry>
        </mxCell>
        <mxCell id="hfjALMgozagow-hVVYOG-169" value="customer_postcode" style="ellipse;whiteSpace=wrap;html=1;" parent="1" vertex="1">
          <mxGeometry x="1610" y="-4318.5" width="210" height="40" as="geometry" />
        </mxCell>
        <mxCell id="hfjALMgozagow-hVVYOG-170" value="" style="endArrow=none;html=1;rounded=0;exitX=0;exitY=0.5;exitDx=0;exitDy=0;entryX=1;entryY=0.5;entryDx=0;entryDy=0;" parent="1" source="hfjALMgozagow-hVVYOG-169" target="hfjALMgozagow-hVVYOG-181" edge="1">
          <mxGeometry width="50" height="50" relative="1" as="geometry">
            <mxPoint x="2240" y="-4344.5" as="sourcePoint" />
            <mxPoint x="2290" y="-4394.5" as="targetPoint" />
          </mxGeometry>
        </mxCell>
        <mxCell id="hfjALMgozagow-hVVYOG-171" value="" style="endArrow=none;html=1;rounded=0;exitX=0.5;exitY=0;exitDx=0;exitDy=0;entryX=0;entryY=0.5;entryDx=0;entryDy=0;" parent="1" source="hfjALMgozagow-hVVYOG-166" target="hfjALMgozagow-hVVYOG-181" edge="1">
          <mxGeometry width="50" height="50" relative="1" as="geometry">
            <mxPoint x="1475" y="-4292.5" as="sourcePoint" />
            <mxPoint x="1525" y="-4342.5" as="targetPoint" />
          </mxGeometry>
        </mxCell>
        <mxCell id="hfjALMgozagow-hVVYOG-172" value="" style="endArrow=none;html=1;rounded=0;entryX=0.5;entryY=0;entryDx=0;entryDy=0;exitX=1;exitY=0.5;exitDx=0;exitDy=0;" parent="1" source="hfjALMgozagow-hVVYOG-165" target="hfjALMgozagow-hVVYOG-166" edge="1">
          <mxGeometry width="50" height="50" relative="1" as="geometry">
            <mxPoint x="1095" y="-4342.5" as="sourcePoint" />
            <mxPoint x="1245" y="-4352.5" as="targetPoint" />
          </mxGeometry>
        </mxCell>
        <mxCell id="hfjALMgozagow-hVVYOG-173" value="" style="endArrow=none;html=1;rounded=0;exitX=0.5;exitY=0;exitDx=0;exitDy=0;entryX=0.5;entryY=1;entryDx=0;entryDy=0;" parent="1" source="hfjALMgozagow-hVVYOG-166" target="hfjALMgozagow-hVVYOG-174" edge="1">
          <mxGeometry width="50" height="50" relative="1" as="geometry">
            <mxPoint x="1310" y="-4402.5" as="sourcePoint" />
            <mxPoint x="1400" y="-4370" as="targetPoint" />
          </mxGeometry>
        </mxCell>
        <mxCell id="hfjALMgozagow-hVVYOG-174" value="customer_name" style="ellipse;whiteSpace=wrap;html=1;" parent="1" vertex="1">
          <mxGeometry x="1330" y="-4428" width="140" height="55.5" as="geometry" />
        </mxCell>
        <mxCell id="hfjALMgozagow-hVVYOG-175" value="" style="endArrow=none;html=1;rounded=0;entryX=0.5;entryY=1;entryDx=0;entryDy=0;exitX=0.5;exitY=0;exitDx=0;exitDy=0;" parent="1" source="hfjALMgozagow-hVVYOG-174" target="hfjALMgozagow-hVVYOG-176" edge="1">
          <mxGeometry width="50" height="50" relative="1" as="geometry">
            <mxPoint x="1445" y="-4580" as="sourcePoint" />
            <mxPoint x="1455" y="-4600" as="targetPoint" />
          </mxGeometry>
        </mxCell>
        <mxCell id="hfjALMgozagow-hVVYOG-176" value="customer_first_name" style="ellipse;whiteSpace=wrap;html=1;" parent="1" vertex="1">
          <mxGeometry x="1370" y="-4590" width="130" height="50" as="geometry" />
        </mxCell>
        <mxCell id="hfjALMgozagow-hVVYOG-177" value="" style="endArrow=none;html=1;rounded=0;exitX=0.5;exitY=0;exitDx=0;exitDy=0;entryX=0;entryY=1;entryDx=0;entryDy=0;" parent="1" source="hfjALMgozagow-hVVYOG-174" target="hfjALMgozagow-hVVYOG-178" edge="1">
          <mxGeometry width="50" height="50" relative="1" as="geometry">
            <mxPoint x="1495" y="-4570" as="sourcePoint" />
            <mxPoint x="1545" y="-4620" as="targetPoint" />
          </mxGeometry>
        </mxCell>
        <mxCell id="hfjALMgozagow-hVVYOG-178" value="customer_middle_name" style="ellipse;whiteSpace=wrap;html=1;" parent="1" vertex="1">
          <mxGeometry x="1460" y="-4540" width="140" height="50" as="geometry" />
        </mxCell>
        <mxCell id="hfjALMgozagow-hVVYOG-179" value="" style="endArrow=none;html=1;rounded=0;exitX=0.5;exitY=0;exitDx=0;exitDy=0;entryX=0;entryY=0.5;entryDx=0;entryDy=0;" parent="1" source="hfjALMgozagow-hVVYOG-174" target="hfjALMgozagow-hVVYOG-180" edge="1">
          <mxGeometry width="50" height="50" relative="1" as="geometry">
            <mxPoint x="1555" y="-4550" as="sourcePoint" />
            <mxPoint x="1605" y="-4600" as="targetPoint" />
          </mxGeometry>
        </mxCell>
        <mxCell id="hfjALMgozagow-hVVYOG-180" value="customer_last_name" style="ellipse;whiteSpace=wrap;html=1;" parent="1" vertex="1">
          <mxGeometry x="1511" y="-4478" width="133" height="50" as="geometry" />
        </mxCell>
        <mxCell id="hfjALMgozagow-hVVYOG-181" value="customer_address" style="ellipse;whiteSpace=wrap;html=1;" parent="1" vertex="1">
          <mxGeometry x="1390" y="-4340" width="130" height="49.5" as="geometry" />
        </mxCell>
        <mxCell id="hfjALMgozagow-hVVYOG-182" value="" style="endArrow=none;html=1;rounded=0;entryX=1;entryY=0.5;entryDx=0;entryDy=0;exitX=0;exitY=0.5;exitDx=0;exitDy=0;" parent="1" source="hfjALMgozagow-hVVYOG-183" target="hfjALMgozagow-hVVYOG-181" edge="1">
          <mxGeometry width="50" height="50" relative="1" as="geometry">
            <mxPoint x="1635" y="-4222.5" as="sourcePoint" />
            <mxPoint x="1595" y="-4312.5" as="targetPoint" />
          </mxGeometry>
        </mxCell>
        <mxCell id="hfjALMgozagow-hVVYOG-183" value="customer_country" style="ellipse;whiteSpace=wrap;html=1;" parent="1" vertex="1">
          <mxGeometry x="1635" y="-4205.5" width="160" height="40" as="geometry" />
        </mxCell>
        <mxCell id="hfjALMgozagow-hVVYOG-185" value="customer_gender" style="ellipse;whiteSpace=wrap;html=1;" parent="1" vertex="1">
          <mxGeometry x="950" y="-4410" width="160" height="70" as="geometry" />
        </mxCell>
        <mxCell id="hfjALMgozagow-hVVYOG-186" value="" style="endArrow=none;html=1;rounded=0;exitX=1;exitY=0.5;exitDx=0;exitDy=0;entryX=0.5;entryY=0;entryDx=0;entryDy=0;" parent="1" source="hfjALMgozagow-hVVYOG-185" target="hfjALMgozagow-hVVYOG-166" edge="1">
          <mxGeometry width="50" height="50" relative="1" as="geometry">
            <mxPoint x="1273" y="-4472.5" as="sourcePoint" />
            <mxPoint x="1255" y="-4372.5" as="targetPoint" />
          </mxGeometry>
        </mxCell>
        <mxCell id="hfjALMgozagow-hVVYOG-187" value="customer_city" style="ellipse;whiteSpace=wrap;html=1;" parent="1" vertex="1">
          <mxGeometry x="1635" y="-4268.5" width="160" height="40" as="geometry" />
        </mxCell>
        <mxCell id="hfjALMgozagow-hVVYOG-188" value="customer_dob" style="ellipse;whiteSpace=wrap;html=1;" parent="1" vertex="1">
          <mxGeometry x="1080" y="-4550" width="130" height="50" as="geometry" />
        </mxCell>
        <mxCell id="hfjALMgozagow-hVVYOG-189" value="" style="endArrow=none;html=1;rounded=0;entryX=1;entryY=0.5;entryDx=0;entryDy=0;exitX=0;exitY=0.5;exitDx=0;exitDy=0;" parent="1" source="hfjALMgozagow-hVVYOG-187" target="hfjALMgozagow-hVVYOG-181" edge="1">
          <mxGeometry width="50" height="50" relative="1" as="geometry">
            <mxPoint x="1631" y="-4202.5" as="sourcePoint" />
            <mxPoint x="1605" y="-4309.5" as="targetPoint" />
          </mxGeometry>
        </mxCell>
        <mxCell id="hfjALMgozagow-hVVYOG-190" value="" style="endArrow=none;html=1;rounded=0;exitX=1;exitY=0.5;exitDx=0;exitDy=0;entryX=0.5;entryY=0;entryDx=0;entryDy=0;" parent="1" source="hfjALMgozagow-hVVYOG-188" target="hfjALMgozagow-hVVYOG-166" edge="1">
          <mxGeometry width="50" height="50" relative="1" as="geometry">
            <mxPoint x="1193" y="-4437.5" as="sourcePoint" />
            <mxPoint x="1255" y="-4357.5" as="targetPoint" />
          </mxGeometry>
        </mxCell>
        <mxCell id="hfjALMgozagow-hVVYOG-191" value="customer_address_number" style="ellipse;whiteSpace=wrap;html=1;" parent="1" vertex="1">
          <mxGeometry x="1610" y="-4375.5" width="210" height="40" as="geometry" />
        </mxCell>
        <mxCell id="hfjALMgozagow-hVVYOG-192" value="" style="endArrow=none;html=1;rounded=0;exitX=0;exitY=0.5;exitDx=0;exitDy=0;entryX=1;entryY=0.5;entryDx=0;entryDy=0;" parent="1" source="hfjALMgozagow-hVVYOG-191" target="hfjALMgozagow-hVVYOG-181" edge="1">
          <mxGeometry width="50" height="50" relative="1" as="geometry">
            <mxPoint x="2232.5" y="-4384.5" as="sourcePoint" />
            <mxPoint x="1625" y="-4334.5" as="targetPoint" />
          </mxGeometry>
        </mxCell>
        <mxCell id="hfjALMgozagow-hVVYOG-211" style="edgeStyle=orthogonalEdgeStyle;rounded=0;orthogonalLoop=1;jettySize=auto;html=1;exitX=0.5;exitY=1;exitDx=0;exitDy=0;" parent="1" source="hfjALMgozagow-hVVYOG-176" target="hfjALMgozagow-hVVYOG-176" edge="1">
          <mxGeometry relative="1" as="geometry" />
        </mxCell>
        <mxCell id="hfjALMgozagow-hVVYOG-214" value="" style="endArrow=none;html=1;rounded=0;entryX=0;entryY=0.5;entryDx=0;entryDy=0;exitX=0.5;exitY=1;exitDx=0;exitDy=0;" parent="1" source="hfjALMgozagow-hVVYOG-215" target="hfjALMgozagow-hVVYOG-222" edge="1">
          <mxGeometry width="50" height="50" relative="1" as="geometry">
            <mxPoint x="1150" y="-4004" as="sourcePoint" />
            <mxPoint x="1270" y="-4004" as="targetPoint" />
          </mxGeometry>
        </mxCell>
        <mxCell id="hfjALMgozagow-hVVYOG-215" value="&lt;u&gt;order_id&lt;/u&gt;" style="ellipse;whiteSpace=wrap;html=1;fillColor=#FFFFCC;" parent="1" vertex="1">
          <mxGeometry x="1160" y="-4152.5" width="80" height="42" as="geometry" />
        </mxCell>
        <mxCell id="hfjALMgozagow-hVVYOG-216" value="" style="endArrow=none;html=1;rounded=0;exitX=1;exitY=1;exitDx=0;exitDy=0;entryX=0;entryY=0.5;entryDx=0;entryDy=0;" parent="1" source="hfjALMgozagow-hVVYOG-217" target="hfjALMgozagow-hVVYOG-222" edge="1">
          <mxGeometry width="50" height="50" relative="1" as="geometry">
            <mxPoint x="1230" y="-3932" as="sourcePoint" />
            <mxPoint x="1260" y="-4006" as="targetPoint" />
          </mxGeometry>
        </mxCell>
        <mxCell id="hfjALMgozagow-hVVYOG-217" value="purchase_date" style="ellipse;whiteSpace=wrap;html=1;" parent="1" vertex="1">
          <mxGeometry x="1050" y="-4129.5" width="110" height="37" as="geometry" />
        </mxCell>
        <mxCell id="hfjALMgozagow-hVVYOG-220" value="" style="endArrow=none;html=1;rounded=0;exitX=0;exitY=0.5;exitDx=0;exitDy=0;" parent="1" source="hfjALMgozagow-hVVYOG-222" target="hfjALMgozagow-hVVYOG-221" edge="1">
          <mxGeometry width="50" height="50" relative="1" as="geometry">
            <mxPoint x="1390" y="-3997" as="sourcePoint" />
            <mxPoint x="1500" y="-3942" as="targetPoint" />
          </mxGeometry>
        </mxCell>
        <mxCell id="hfjALMgozagow-hVVYOG-221" value="order_status" style="ellipse;whiteSpace=wrap;html=1;" parent="1" vertex="1">
          <mxGeometry x="950" y="-4032.5" width="120" height="40" as="geometry" />
        </mxCell>
        <mxCell id="hfjALMgozagow-hVVYOG-222" value="ORDERS" style="rhombus;whiteSpace=wrap;html=1;fillColor=#D5E8D4;" parent="1" vertex="1">
          <mxGeometry x="1270" y="-4049.25" width="80" height="80" as="geometry" />
        </mxCell>
        <mxCell id="hfjALMgozagow-hVVYOG-223" value="payment_method" style="ellipse;whiteSpace=wrap;html=1;" parent="1" vertex="1">
          <mxGeometry x="1060" y="-3943" width="120" height="40" as="geometry" />
        </mxCell>
        <mxCell id="hfjALMgozagow-hVVYOG-224" value="" style="endArrow=none;html=1;rounded=0;entryX=1;entryY=0;entryDx=0;entryDy=0;exitX=0;exitY=0.5;exitDx=0;exitDy=0;" parent="1" source="hfjALMgozagow-hVVYOG-222" target="hfjALMgozagow-hVVYOG-223" edge="1">
          <mxGeometry width="50" height="50" relative="1" as="geometry">
            <mxPoint x="1318" y="-3986" as="sourcePoint" />
            <mxPoint x="1480" y="-3933" as="targetPoint" />
          </mxGeometry>
        </mxCell>
        <mxCell id="hfjALMgozagow-hVVYOG-225" value="" style="endArrow=none;html=1;rounded=0;exitX=0;exitY=0.5;exitDx=0;exitDy=0;entryX=1;entryY=0.5;entryDx=0;entryDy=0;" parent="1" source="hfjALMgozagow-hVVYOG-222" target="hfjALMgozagow-hVVYOG-226" edge="1">
          <mxGeometry width="50" height="50" relative="1" as="geometry">
            <mxPoint x="1250" y="-4006" as="sourcePoint" />
            <mxPoint x="1240" y="-3942" as="targetPoint" />
          </mxGeometry>
        </mxCell>
        <mxCell id="hfjALMgozagow-hVVYOG-226" value="review_rating" style="ellipse;whiteSpace=wrap;html=1;" parent="1" vertex="1">
          <mxGeometry x="970" y="-4086" width="120" height="40" as="geometry" />
        </mxCell>
        <mxCell id="hfjALMgozagow-hVVYOG-227" value="" style="endArrow=none;html=1;rounded=0;exitX=0.5;exitY=1;exitDx=0;exitDy=0;entryX=0.5;entryY=0;entryDx=0;entryDy=0;" parent="1" source="hfjALMgozagow-hVVYOG-166" target="hfjALMgozagow-hVVYOG-222" edge="1">
          <mxGeometry relative="1" as="geometry">
            <mxPoint x="2300" y="-4362.5" as="sourcePoint" />
            <mxPoint x="2460" y="-4362.5" as="targetPoint" />
          </mxGeometry>
        </mxCell>
        <mxCell id="hfjALMgozagow-hVVYOG-228" value="M" style="resizable=0;html=1;whiteSpace=wrap;align=left;verticalAlign=bottom;" parent="hfjALMgozagow-hVVYOG-227" connectable="0" vertex="1">
          <mxGeometry x="-1" relative="1" as="geometry">
            <mxPoint y="100" as="offset" />
          </mxGeometry>
        </mxCell>
        <mxCell id="hfjALMgozagow-hVVYOG-230" value="" style="endArrow=none;html=1;rounded=0;entryX=0.5;entryY=0;entryDx=0;entryDy=0;exitX=0.5;exitY=1;exitDx=0;exitDy=0;" parent="1" source="hfjALMgozagow-hVVYOG-222" target="hfjALMgozagow-hVVYOG-259" edge="1">
          <mxGeometry relative="1" as="geometry">
            <mxPoint x="1310" y="-3966.5" as="sourcePoint" />
            <mxPoint x="1308.5700000000002" y="-3809.5" as="targetPoint" />
          </mxGeometry>
        </mxCell>
        <mxCell id="hfjALMgozagow-hVVYOG-232" value="N" style="resizable=0;html=1;whiteSpace=wrap;align=right;verticalAlign=bottom;" parent="hfjALMgozagow-hVVYOG-230" connectable="0" vertex="1">
          <mxGeometry x="1" relative="1" as="geometry">
            <mxPoint x="11" y="-62" as="offset" />
          </mxGeometry>
        </mxCell>
        <mxCell id="hfjALMgozagow-hVVYOG-239" value="SHIPPING" style="rounded=0;whiteSpace=wrap;html=1;fillColor=#CCFFFF;" parent="1" vertex="1">
          <mxGeometry x="1440" y="-4039.25" width="120" height="60" as="geometry" />
        </mxCell>
        <mxCell id="hfjALMgozagow-hVVYOG-240" value="" style="endArrow=none;html=1;rounded=0;exitX=1;exitY=0.5;exitDx=0;exitDy=0;entryX=0;entryY=0.5;entryDx=0;entryDy=0;" parent="1" source="hfjALMgozagow-hVVYOG-239" target="hfjALMgozagow-hVVYOG-241" edge="1">
          <mxGeometry width="50" height="50" relative="1" as="geometry">
            <mxPoint x="1210" y="-3819.25" as="sourcePoint" />
            <mxPoint x="1610" y="-4009.25" as="targetPoint" />
          </mxGeometry>
        </mxCell>
        <mxCell id="hfjALMgozagow-hVVYOG-241" value="dispatch_date" style="ellipse;whiteSpace=wrap;html=1;" parent="1" vertex="1">
          <mxGeometry x="1620" y="-3991.25" width="120" height="50" as="geometry" />
        </mxCell>
        <mxCell id="hfjALMgozagow-hVVYOG-242" value="" style="endArrow=none;html=1;rounded=0;entryX=0;entryY=0.5;entryDx=0;entryDy=0;exitX=1;exitY=0.5;exitDx=0;exitDy=0;" parent="1" source="hfjALMgozagow-hVVYOG-239" target="hfjALMgozagow-hVVYOG-243" edge="1">
          <mxGeometry width="50" height="50" relative="1" as="geometry">
            <mxPoint x="1560" y="-3979.25" as="sourcePoint" />
            <mxPoint x="1590" y="-3959.25" as="targetPoint" />
          </mxGeometry>
        </mxCell>
        <mxCell id="hfjALMgozagow-hVVYOG-243" value="delivery_date" style="ellipse;whiteSpace=wrap;html=1;" parent="1" vertex="1">
          <mxGeometry x="1620" y="-3925" width="120" height="50" as="geometry" />
        </mxCell>
        <mxCell id="hfjALMgozagow-hVVYOG-244" value="&lt;u&gt;shipping_id&lt;/u&gt;" style="ellipse;whiteSpace=wrap;html=1;fillColor=#FFFFCC;" parent="1" vertex="1">
          <mxGeometry x="1620" y="-4119.25" width="120" height="50" as="geometry" />
        </mxCell>
        <mxCell id="hfjALMgozagow-hVVYOG-245" value="" style="endArrow=none;html=1;rounded=0;entryX=0;entryY=0.5;entryDx=0;entryDy=0;exitX=1;exitY=0.5;exitDx=0;exitDy=0;" parent="1" source="hfjALMgozagow-hVVYOG-239" target="hfjALMgozagow-hVVYOG-244" edge="1">
          <mxGeometry width="50" height="50" relative="1" as="geometry">
            <mxPoint x="1560" y="-3999.25" as="sourcePoint" />
            <mxPoint x="1605" y="-4074.25" as="targetPoint" />
          </mxGeometry>
        </mxCell>
        <mxCell id="hfjALMgozagow-hVVYOG-248" value="" style="endArrow=none;html=1;rounded=0;entryX=0;entryY=0.5;entryDx=0;entryDy=0;exitX=1;exitY=0.5;exitDx=0;exitDy=0;" parent="1" source="hfjALMgozagow-hVVYOG-239" target="4hEyGYkZ4LOK131lMA6i-1" edge="1">
          <mxGeometry width="50" height="50" relative="1" as="geometry">
            <mxPoint x="1590" y="-4009.25" as="sourcePoint" />
            <mxPoint x="1619.999999999999" y="-4029.25" as="targetPoint" />
          </mxGeometry>
        </mxCell>
        <mxCell id="hfjALMgozagow-hVVYOG-249" value="" style="endArrow=none;html=1;rounded=0;exitX=1;exitY=0.5;exitDx=0;exitDy=0;entryX=0;entryY=0.5;entryDx=0;entryDy=0;" parent="1" source="hfjALMgozagow-hVVYOG-222" target="hfjALMgozagow-hVVYOG-239" edge="1">
          <mxGeometry relative="1" as="geometry">
            <mxPoint x="1360" y="-4002.17" as="sourcePoint" />
            <mxPoint x="1520" y="-4002.17" as="targetPoint" />
          </mxGeometry>
        </mxCell>
        <mxCell id="hfjALMgozagow-hVVYOG-252" value="PRODUCT_CATEGORY" style="rounded=0;whiteSpace=wrap;html=1;fillColor=#CCFFFF;" parent="1" vertex="1">
          <mxGeometry x="697.5" y="-4071" width="145" height="68.5" as="geometry" />
        </mxCell>
        <mxCell id="hfjALMgozagow-hVVYOG-253" value="" style="endArrow=none;html=1;rounded=0;exitX=1;exitY=0.5;exitDx=0;exitDy=0;entryX=0;entryY=0.5;entryDx=0;entryDy=0;" parent="1" source="hfjALMgozagow-hVVYOG-254" target="hfjALMgozagow-hVVYOG-252" edge="1">
          <mxGeometry width="50" height="50" relative="1" as="geometry">
            <mxPoint x="645" y="-3985" as="sourcePoint" />
            <mxPoint x="650" y="-4118" as="targetPoint" />
          </mxGeometry>
        </mxCell>
        <mxCell id="hfjALMgozagow-hVVYOG-254" value="&lt;u&gt;product_category_id&lt;/u&gt;" style="ellipse;whiteSpace=wrap;html=1;fillColor=#FFFFCC;" parent="1" vertex="1">
          <mxGeometry x="470" y="-4110.5" width="147.5" height="40" as="geometry" />
        </mxCell>
        <mxCell id="hfjALMgozagow-hVVYOG-255" value="" style="endArrow=none;html=1;rounded=0;exitX=1;exitY=0.5;exitDx=0;exitDy=0;entryX=0;entryY=0.5;entryDx=0;entryDy=0;" parent="1" source="hfjALMgozagow-hVVYOG-256" target="hfjALMgozagow-hVVYOG-252" edge="1">
          <mxGeometry width="50" height="50" relative="1" as="geometry">
            <mxPoint x="600" y="-3910" as="sourcePoint" />
            <mxPoint x="650" y="-4062" as="targetPoint" />
          </mxGeometry>
        </mxCell>
        <mxCell id="hfjALMgozagow-hVVYOG-256" value="parent_category_id" style="ellipse;whiteSpace=wrap;html=1;" parent="1" vertex="1">
          <mxGeometry x="487.5" y="-4056.75" width="130" height="40" as="geometry" />
        </mxCell>
        <mxCell id="hfjALMgozagow-hVVYOG-257" value="" style="endArrow=none;html=1;rounded=0;exitX=0.952;exitY=0.5;exitDx=0;exitDy=0;exitPerimeter=0;entryX=0;entryY=0.5;entryDx=0;entryDy=0;" parent="1" source="hfjALMgozagow-hVVYOG-258" target="hfjALMgozagow-hVVYOG-252" edge="1">
          <mxGeometry width="50" height="50" relative="1" as="geometry">
            <mxPoint x="785" y="-3915" as="sourcePoint" />
            <mxPoint x="600" y="-4015" as="targetPoint" />
          </mxGeometry>
        </mxCell>
        <mxCell id="hfjALMgozagow-hVVYOG-258" value="category_name" style="ellipse;whiteSpace=wrap;html=1;" parent="1" vertex="1">
          <mxGeometry x="512.5" y="-4002.5" width="105" height="40" as="geometry" />
        </mxCell>
        <mxCell id="hfjALMgozagow-hVVYOG-259" value="PRODUCT" style="rounded=0;whiteSpace=wrap;html=1;fillColor=#CCFFFF;" parent="1" vertex="1">
          <mxGeometry x="1250" y="-3747" width="120" height="59" as="geometry" />
        </mxCell>
        <mxCell id="hfjALMgozagow-hVVYOG-260" value="" style="endArrow=none;html=1;rounded=0;exitX=0;exitY=1;exitDx=0;exitDy=0;entryX=1;entryY=0.5;entryDx=0;entryDy=0;" parent="1" source="hfjALMgozagow-hVVYOG-261" target="hfjALMgozagow-hVVYOG-259" edge="1">
          <mxGeometry width="50" height="50" relative="1" as="geometry">
            <mxPoint x="1201" y="-3551.5" as="sourcePoint" />
            <mxPoint x="1350" y="-3832.5" as="targetPoint" />
          </mxGeometry>
        </mxCell>
        <mxCell id="hfjALMgozagow-hVVYOG-261" value="&lt;u&gt;product_id&lt;/u&gt;" style="ellipse;whiteSpace=wrap;html=1;fillColor=#FFFFCC;" parent="1" vertex="1">
          <mxGeometry x="1435" y="-3846" width="90" height="42.5" as="geometry" />
        </mxCell>
        <mxCell id="hfjALMgozagow-hVVYOG-262" value="" style="endArrow=none;html=1;rounded=0;exitX=0;exitY=0.5;exitDx=0;exitDy=0;entryX=1;entryY=0.5;entryDx=0;entryDy=0;" parent="1" source="hfjALMgozagow-hVVYOG-263" target="hfjALMgozagow-hVVYOG-259" edge="1">
          <mxGeometry width="50" height="50" relative="1" as="geometry">
            <mxPoint x="1261" y="-3551.5" as="sourcePoint" />
            <mxPoint x="1400" y="-3792.5" as="targetPoint" />
          </mxGeometry>
        </mxCell>
        <mxCell id="hfjALMgozagow-hVVYOG-263" value="product_name" style="ellipse;whiteSpace=wrap;html=1;" parent="1" vertex="1">
          <mxGeometry x="1525" y="-3810" width="105" height="50" as="geometry" />
        </mxCell>
        <mxCell id="hfjALMgozagow-hVVYOG-264" value="product_quantity_available" style="ellipse;whiteSpace=wrap;html=1;" parent="1" vertex="1">
          <mxGeometry x="1520" y="-3737.5" width="160" height="40" as="geometry" />
        </mxCell>
        <mxCell id="hfjALMgozagow-hVVYOG-265" value="product_price" style="ellipse;whiteSpace=wrap;html=1;" parent="1" vertex="1">
          <mxGeometry x="1500" y="-3672.5" width="120" height="40" as="geometry" />
        </mxCell>
        <mxCell id="hfjALMgozagow-hVVYOG-269" value="" style="endArrow=none;html=1;rounded=0;entryX=0;entryY=0.5;entryDx=0;entryDy=0;exitX=1;exitY=0.5;exitDx=0;exitDy=0;" parent="1" source="hfjALMgozagow-hVVYOG-259" target="hfjALMgozagow-hVVYOG-264" edge="1">
          <mxGeometry width="50" height="50" relative="1" as="geometry">
            <mxPoint x="1460" y="-3762.5" as="sourcePoint" />
            <mxPoint x="1016" y="-3575.8599999999997" as="targetPoint" />
          </mxGeometry>
        </mxCell>
        <mxCell id="hfjALMgozagow-hVVYOG-270" value="" style="endArrow=none;html=1;rounded=0;entryX=0;entryY=0.5;entryDx=0;entryDy=0;exitX=1;exitY=0.5;exitDx=0;exitDy=0;" parent="1" source="hfjALMgozagow-hVVYOG-259" target="hfjALMgozagow-hVVYOG-265" edge="1">
          <mxGeometry width="50" height="50" relative="1" as="geometry">
            <mxPoint x="1510" y="-3742.5" as="sourcePoint" />
            <mxPoint x="1600" y="-3762.5" as="targetPoint" />
          </mxGeometry>
        </mxCell>
        <mxCell id="hfjALMgozagow-hVVYOG-274" value="SUPPLIER" style="rounded=0;whiteSpace=wrap;html=1;fillColor=#CCFFFF;" parent="1" vertex="1">
          <mxGeometry x="710" y="-3749.75" width="130" height="64.5" as="geometry" />
        </mxCell>
        <mxCell id="hfjALMgozagow-hVVYOG-275" value="" style="endArrow=none;html=1;rounded=0;exitX=1;exitY=0.5;exitDx=0;exitDy=0;entryX=0;entryY=0.5;entryDx=0;entryDy=0;" parent="1" source="hfjALMgozagow-hVVYOG-276" target="hfjALMgozagow-hVVYOG-278" edge="1">
          <mxGeometry width="50" height="50" relative="1" as="geometry">
            <mxPoint x="1360" y="-3579" as="sourcePoint" />
            <mxPoint x="370" y="-3742.5" as="targetPoint" />
            <Array as="points" />
          </mxGeometry>
        </mxCell>
        <mxCell id="hfjALMgozagow-hVVYOG-276" value="supplier_address_number" style="ellipse;whiteSpace=wrap;html=1;" parent="1" vertex="1">
          <mxGeometry x="100" y="-3787" width="165" height="40" as="geometry" />
        </mxCell>
        <mxCell id="hfjALMgozagow-hVVYOG-277" value="" style="endArrow=none;html=1;rounded=0;exitX=0;exitY=0.5;exitDx=0;exitDy=0;" parent="1" source="hfjALMgozagow-hVVYOG-278" target="hfjALMgozagow-hVVYOG-299" edge="1">
          <mxGeometry width="50" height="50" relative="1" as="geometry">
            <mxPoint x="850" y="-3542" as="sourcePoint" />
            <mxPoint x="935.0000000000127" y="-3584" as="targetPoint" />
          </mxGeometry>
        </mxCell>
        <mxCell id="hfjALMgozagow-hVVYOG-278" value="supplier_address" style="ellipse;whiteSpace=wrap;html=1;" parent="1" vertex="1">
          <mxGeometry x="400" y="-3752.5" width="110" height="31.75" as="geometry" />
        </mxCell>
        <mxCell id="hfjALMgozagow-hVVYOG-279" value="" style="endArrow=none;html=1;rounded=0;exitX=1;exitY=0;exitDx=0;exitDy=0;entryX=0;entryY=0.5;entryDx=0;entryDy=0;" parent="1" source="hfjALMgozagow-hVVYOG-280" target="hfjALMgozagow-hVVYOG-278" edge="1">
          <mxGeometry width="50" height="50" relative="1" as="geometry">
            <mxPoint x="860" y="-3467" as="sourcePoint" />
            <mxPoint x="400" y="-3753.5" as="targetPoint" />
          </mxGeometry>
        </mxCell>
        <mxCell id="hfjALMgozagow-hVVYOG-280" value="supplier_country" style="ellipse;whiteSpace=wrap;html=1;" parent="1" vertex="1">
          <mxGeometry x="240" y="-3632.5" width="110" height="50" as="geometry" />
        </mxCell>
        <mxCell id="hfjALMgozagow-hVVYOG-281" value="&lt;u&gt;supplier_id&lt;br&gt;&lt;/u&gt;" style="ellipse;whiteSpace=wrap;html=1;fillColor=#FFFFCC;" parent="1" vertex="1">
          <mxGeometry x="490" y="-3857.5" width="90" height="40" as="geometry" />
        </mxCell>
        <mxCell id="hfjALMgozagow-hVVYOG-282" value="supplier_name" style="ellipse;whiteSpace=wrap;html=1;" parent="1" vertex="1">
          <mxGeometry x="440" y="-3812.5" width="90" height="40" as="geometry" />
        </mxCell>
        <mxCell id="hfjALMgozagow-hVVYOG-283" value="supplier_phone" style="ellipse;whiteSpace=wrap;html=1;" parent="1" vertex="1">
          <mxGeometry x="420" y="-3652.5" width="90" height="40" as="geometry" />
        </mxCell>
        <mxCell id="hfjALMgozagow-hVVYOG-284" value="supplier_email" style="ellipse;whiteSpace=wrap;html=1;" parent="1" vertex="1">
          <mxGeometry x="400" y="-3697.5" width="90" height="40" as="geometry" />
        </mxCell>
        <mxCell id="hfjALMgozagow-hVVYOG-285" value="supplier_bank" style="ellipse;whiteSpace=wrap;html=1;" parent="1" vertex="1">
          <mxGeometry x="566" y="-3567.5" width="90" height="40" as="geometry" />
        </mxCell>
        <mxCell id="hfjALMgozagow-hVVYOG-286" value="supplier_agreement" style="ellipse;whiteSpace=wrap;html=1;" parent="1" vertex="1">
          <mxGeometry x="465" y="-3604.5" width="115" height="50" as="geometry" />
        </mxCell>
        <mxCell id="hfjALMgozagow-hVVYOG-287" value="" style="endArrow=none;html=1;rounded=0;entryX=0;entryY=0.5;entryDx=0;entryDy=0;exitX=1;exitY=1;exitDx=0;exitDy=0;" parent="1" source="hfjALMgozagow-hVVYOG-282" target="hfjALMgozagow-hVVYOG-274" edge="1">
          <mxGeometry width="50" height="50" relative="1" as="geometry">
            <mxPoint x="620" y="-3882.5" as="sourcePoint" />
            <mxPoint x="698" y="-3677" as="targetPoint" />
          </mxGeometry>
        </mxCell>
        <mxCell id="hfjALMgozagow-hVVYOG-288" value="" style="endArrow=none;html=1;rounded=0;entryX=0;entryY=0.5;entryDx=0;entryDy=0;exitX=1;exitY=0;exitDx=0;exitDy=0;" parent="1" source="hfjALMgozagow-hVVYOG-286" target="hfjALMgozagow-hVVYOG-274" edge="1">
          <mxGeometry width="50" height="50" relative="1" as="geometry">
            <mxPoint x="615" y="-3517" as="sourcePoint" />
            <mxPoint x="698" y="-3677" as="targetPoint" />
          </mxGeometry>
        </mxCell>
        <mxCell id="hfjALMgozagow-hVVYOG-289" value="" style="endArrow=none;html=1;rounded=0;entryX=0;entryY=0.5;entryDx=0;entryDy=0;exitX=1;exitY=0.5;exitDx=0;exitDy=0;" parent="1" source="hfjALMgozagow-hVVYOG-283" target="hfjALMgozagow-hVVYOG-274" edge="1">
          <mxGeometry width="50" height="50" relative="1" as="geometry">
            <mxPoint x="598" y="-3565" as="sourcePoint" />
            <mxPoint x="698" y="-3677" as="targetPoint" />
          </mxGeometry>
        </mxCell>
        <mxCell id="hfjALMgozagow-hVVYOG-290" value="" style="endArrow=none;html=1;rounded=0;entryX=0;entryY=0.5;entryDx=0;entryDy=0;exitX=1;exitY=0.5;exitDx=0;exitDy=0;" parent="1" source="hfjALMgozagow-hVVYOG-284" target="hfjALMgozagow-hVVYOG-274" edge="1">
          <mxGeometry width="50" height="50" relative="1" as="geometry">
            <mxPoint x="590" y="-3597" as="sourcePoint" />
            <mxPoint x="698" y="-3677" as="targetPoint" />
          </mxGeometry>
        </mxCell>
        <mxCell id="hfjALMgozagow-hVVYOG-291" value="" style="endArrow=none;html=1;rounded=0;exitX=0.5;exitY=0;exitDx=0;exitDy=0;" parent="1" source="hfjALMgozagow-hVVYOG-285" edge="1">
          <mxGeometry width="50" height="50" relative="1" as="geometry">
            <mxPoint x="740" y="-3575" as="sourcePoint" />
            <mxPoint x="710" y="-3717.5" as="targetPoint" />
          </mxGeometry>
        </mxCell>
        <mxCell id="hfjALMgozagow-hVVYOG-292" value="" style="endArrow=none;html=1;rounded=0;exitX=1;exitY=0.5;exitDx=0;exitDy=0;entryX=0;entryY=0.5;entryDx=0;entryDy=0;" parent="1" source="hfjALMgozagow-hVVYOG-278" target="hfjALMgozagow-hVVYOG-274" edge="1">
          <mxGeometry width="50" height="50" relative="1" as="geometry">
            <mxPoint x="876.5" y="-3637" as="sourcePoint" />
            <mxPoint x="690" y="-3822.5" as="targetPoint" />
          </mxGeometry>
        </mxCell>
        <mxCell id="hfjALMgozagow-hVVYOG-293" value="" style="endArrow=none;html=1;rounded=0;entryX=0;entryY=0.5;entryDx=0;entryDy=0;exitX=1;exitY=1;exitDx=0;exitDy=0;" parent="1" source="hfjALMgozagow-hVVYOG-281" target="hfjALMgozagow-hVVYOG-274" edge="1">
          <mxGeometry width="50" height="50" relative="1" as="geometry">
            <mxPoint x="520" y="-3749.5" as="sourcePoint" />
            <mxPoint x="698" y="-3677" as="targetPoint" />
          </mxGeometry>
        </mxCell>
        <mxCell id="hfjALMgozagow-hVVYOG-294" value="SUPPLY" style="rhombus;whiteSpace=wrap;html=1;fillColor=#D5E8D4;" parent="1" vertex="1">
          <mxGeometry x="1003.5" y="-3760" width="85" height="85" as="geometry" />
        </mxCell>
        <mxCell id="hfjALMgozagow-hVVYOG-299" value="supplier_street" style="ellipse;whiteSpace=wrap;html=1;" parent="1" vertex="1">
          <mxGeometry x="120" y="-3737.5" width="150" height="40" as="geometry" />
        </mxCell>
        <mxCell id="hfjALMgozagow-hVVYOG-300" value="" style="endArrow=none;html=1;rounded=0;exitX=0;exitY=0;exitDx=0;exitDy=0;entryX=0.5;entryY=1;entryDx=0;entryDy=0;" parent="1" source="hfjALMgozagow-hVVYOG-282" target="hfjALMgozagow-hVVYOG-301" edge="1">
          <mxGeometry width="50" height="50" relative="1" as="geometry">
            <mxPoint x="566.75" y="-3486" as="sourcePoint" />
            <mxPoint x="612.75" y="-3827" as="targetPoint" />
          </mxGeometry>
        </mxCell>
        <mxCell id="hfjALMgozagow-hVVYOG-301" value="supplier_first_name" style="ellipse;whiteSpace=wrap;html=1;" parent="1" vertex="1">
          <mxGeometry x="310.25" y="-3976.75" width="149.75" height="50" as="geometry" />
        </mxCell>
        <mxCell id="hfjALMgozagow-hVVYOG-302" value="" style="endArrow=none;html=1;rounded=0;exitX=0;exitY=0;exitDx=0;exitDy=0;" parent="1" source="hfjALMgozagow-hVVYOG-282" target="hfjALMgozagow-hVVYOG-303" edge="1">
          <mxGeometry width="50" height="50" relative="1" as="geometry">
            <mxPoint x="410" y="-3800" as="sourcePoint" />
            <mxPoint x="762.75" y="-3827" as="targetPoint" />
          </mxGeometry>
        </mxCell>
        <mxCell id="hfjALMgozagow-hVVYOG-303" value="supplier_last_name" style="ellipse;whiteSpace=wrap;html=1;" parent="1" vertex="1">
          <mxGeometry x="164.75" y="-3862.5" width="180.25" height="50" as="geometry" />
        </mxCell>
        <mxCell id="hfjALMgozagow-hVVYOG-304" value="supplier_postcode" style="ellipse;whiteSpace=wrap;html=1;" parent="1" vertex="1">
          <mxGeometry x="149.75" y="-3685.25" width="180" height="40" as="geometry" />
        </mxCell>
        <mxCell id="hfjALMgozagow-hVVYOG-305" value="" style="endArrow=none;html=1;rounded=0;entryX=0;entryY=0.5;entryDx=0;entryDy=0;exitX=1;exitY=0;exitDx=0;exitDy=0;" parent="1" source="hfjALMgozagow-hVVYOG-304" target="hfjALMgozagow-hVVYOG-278" edge="1">
          <mxGeometry width="50" height="50" relative="1" as="geometry">
            <mxPoint x="330" y="-3663.5" as="sourcePoint" />
            <mxPoint x="330" y="-3712.5" as="targetPoint" />
          </mxGeometry>
        </mxCell>
        <mxCell id="hfjALMgozagow-hVVYOG-306" value="" style="endArrow=none;html=1;rounded=0;entryX=1;entryY=1;entryDx=0;entryDy=0;exitX=0;exitY=0;exitDx=0;exitDy=0;" parent="1" source="hfjALMgozagow-hVVYOG-282" target="hfjALMgozagow-hVVYOG-307" edge="1">
          <mxGeometry width="50" height="50" relative="1" as="geometry">
            <mxPoint x="440" y="-3842.5" as="sourcePoint" />
            <mxPoint x="742.75" y="-3777" as="targetPoint" />
          </mxGeometry>
        </mxCell>
        <mxCell id="hfjALMgozagow-hVVYOG-307" value="supplier_middle_name" style="ellipse;whiteSpace=wrap;html=1;" parent="1" vertex="1">
          <mxGeometry x="230" y="-3924.25" width="149.75" height="50" as="geometry" />
        </mxCell>
        <mxCell id="hfjALMgozagow-hVVYOG-308" value="" style="endArrow=none;html=1;rounded=0;entryX=0;entryY=0.5;entryDx=0;entryDy=0;exitX=1;exitY=0.5;exitDx=0;exitDy=0;" parent="1" source="hfjALMgozagow-hVVYOG-259" target="hfjALMgozagow-hVVYOG-309" edge="1">
          <mxGeometry width="50" height="50" relative="1" as="geometry">
            <mxPoint x="1410" y="-3702.5" as="sourcePoint" />
            <mxPoint x="1026" y="-3511.5" as="targetPoint" />
          </mxGeometry>
        </mxCell>
        <mxCell id="hfjALMgozagow-hVVYOG-311" value="ADS" style="rounded=0;whiteSpace=wrap;html=1;fillColor=#CCFFFF;" parent="1" vertex="1">
          <mxGeometry x="713.5" y="-3527.5" width="120" height="60" as="geometry" />
        </mxCell>
        <mxCell id="hfjALMgozagow-hVVYOG-312" value="" style="endArrow=none;html=1;rounded=0;exitX=0.5;exitY=0;exitDx=0;exitDy=0;entryX=0.5;entryY=1;entryDx=0;entryDy=0;" parent="1" source="hfjALMgozagow-hVVYOG-317" target="hfjALMgozagow-hVVYOG-311" edge="1">
          <mxGeometry width="50" height="50" relative="1" as="geometry">
            <mxPoint x="664" y="-3447.5" as="sourcePoint" />
            <mxPoint x="714" y="-3437.5" as="targetPoint" />
          </mxGeometry>
        </mxCell>
        <mxCell id="hfjALMgozagow-hVVYOG-313" value="&lt;u&gt;ad_id&lt;/u&gt;" style="ellipse;whiteSpace=wrap;html=1;fillColor=#FFFFCC;" parent="1" vertex="1">
          <mxGeometry x="525" y="-3457.5" width="120" height="50" as="geometry" />
        </mxCell>
        <mxCell id="hfjALMgozagow-hVVYOG-314" value="" style="endArrow=none;html=1;rounded=0;entryX=1;entryY=0.5;entryDx=0;entryDy=0;exitX=0.5;exitY=1;exitDx=0;exitDy=0;" parent="1" source="hfjALMgozagow-hVVYOG-311" target="hfjALMgozagow-hVVYOG-313" edge="1">
          <mxGeometry width="50" height="50" relative="1" as="geometry">
            <mxPoint x="665" y="-3497.5" as="sourcePoint" />
            <mxPoint x="653.5" y="-3577.5" as="targetPoint" />
          </mxGeometry>
        </mxCell>
        <mxCell id="hfjALMgozagow-hVVYOG-315" value="ads_description" style="ellipse;whiteSpace=wrap;html=1;" parent="1" vertex="1">
          <mxGeometry x="585" y="-3407.5" width="120" height="60" as="geometry" />
        </mxCell>
        <mxCell id="hfjALMgozagow-hVVYOG-317" value="discount_rate" style="ellipse;whiteSpace=wrap;html=1;" parent="1" vertex="1">
          <mxGeometry x="715" y="-3370" width="120" height="50" as="geometry" />
        </mxCell>
        <mxCell id="hfjALMgozagow-hVVYOG-318" value="" style="endArrow=none;html=1;rounded=0;entryX=0;entryY=0;entryDx=0;entryDy=0;exitX=0.5;exitY=1;exitDx=0;exitDy=0;" parent="1" source="hfjALMgozagow-hVVYOG-311" target="hfjALMgozagow-hVVYOG-319" edge="1">
          <mxGeometry width="50" height="50" relative="1" as="geometry">
            <mxPoint x="714" y="-3497.5" as="sourcePoint" />
            <mxPoint x="883.5" y="-3577.5" as="targetPoint" />
          </mxGeometry>
        </mxCell>
        <mxCell id="hfjALMgozagow-hVVYOG-319" value="ads_start_date" style="ellipse;whiteSpace=wrap;html=1;" parent="1" vertex="1">
          <mxGeometry x="845" y="-3397.5" width="120" height="60" as="geometry" />
        </mxCell>
        <mxCell id="hfjALMgozagow-hVVYOG-320" value="" style="endArrow=none;html=1;rounded=0;exitX=0;exitY=0.5;exitDx=0;exitDy=0;entryX=0.5;entryY=1;entryDx=0;entryDy=0;" parent="1" source="hfjALMgozagow-hVVYOG-321" target="hfjALMgozagow-hVVYOG-311" edge="1">
          <mxGeometry width="50" height="50" relative="1" as="geometry">
            <mxPoint x="743.5" y="-3417.5" as="sourcePoint" />
            <mxPoint x="793.5" y="-3467.5" as="targetPoint" />
          </mxGeometry>
        </mxCell>
        <mxCell id="hfjALMgozagow-hVVYOG-321" value="ads_end_date" style="ellipse;whiteSpace=wrap;html=1;" parent="1" vertex="1">
          <mxGeometry x="905" y="-3447.5" width="120" height="50" as="geometry" />
        </mxCell>
        <mxCell id="hfjALMgozagow-hVVYOG-326" value="" style="endArrow=none;html=1;rounded=0;entryX=-0.01;entryY=0.492;entryDx=0;entryDy=0;entryPerimeter=0;exitX=0.25;exitY=0;exitDx=0;exitDy=0;" parent="1" source="hfjALMgozagow-hVVYOG-252" target="hfjALMgozagow-hVVYOG-331" edge="1">
          <mxGeometry width="50" height="50" relative="1" as="geometry">
            <mxPoint x="696" y="-4080" as="sourcePoint" />
            <mxPoint x="620" y="-4250" as="targetPoint" />
          </mxGeometry>
        </mxCell>
        <mxCell id="hfjALMgozagow-hVVYOG-328" value="&lt;font style=&quot;font-size: 14px;&quot;&gt;1&lt;/font&gt;" style="edgeLabel;html=1;align=center;verticalAlign=middle;resizable=0;points=[];" parent="hfjALMgozagow-hVVYOG-326" connectable="0" vertex="1">
          <mxGeometry x="0.7912" y="4" relative="1" as="geometry">
            <mxPoint x="3" y="73" as="offset" />
          </mxGeometry>
        </mxCell>
        <mxCell id="hfjALMgozagow-hVVYOG-329" value="" style="endArrow=none;html=1;rounded=0;entryX=0.997;entryY=0.496;entryDx=0;entryDy=0;entryPerimeter=0;exitX=0.75;exitY=0;exitDx=0;exitDy=0;" parent="1" source="hfjALMgozagow-hVVYOG-252" target="hfjALMgozagow-hVVYOG-331" edge="1">
          <mxGeometry width="50" height="50" relative="1" as="geometry">
            <mxPoint x="720" y="-4082" as="sourcePoint" />
            <mxPoint x="780" y="-4250" as="targetPoint" />
          </mxGeometry>
        </mxCell>
        <mxCell id="hfjALMgozagow-hVVYOG-330" value="&lt;font style=&quot;font-size: 14px;&quot;&gt;N&lt;/font&gt;" style="edgeLabel;html=1;align=center;verticalAlign=middle;resizable=0;points=[];" parent="hfjALMgozagow-hVVYOG-329" connectable="0" vertex="1">
          <mxGeometry x="0.7882" y="-2" relative="1" as="geometry">
            <mxPoint y="70" as="offset" />
          </mxGeometry>
        </mxCell>
        <mxCell id="hfjALMgozagow-hVVYOG-331" value="CONTAINS" style="html=1;whiteSpace=wrap;aspect=fixed;shape=isoRectangle;fillColor=#D5E8D4;" parent="1" vertex="1">
          <mxGeometry x="715.42" y="-4232.5" width="104.58" height="62.75" as="geometry" />
        </mxCell>
        <mxCell id="hfjALMgozagow-hVVYOG-332" value="&lt;font style=&quot;font-size: 14px;&quot;&gt;Parent_Category&lt;/font&gt;" style="text;html=1;align=center;verticalAlign=middle;resizable=0;points=[];autosize=1;strokeColor=none;fillColor=none;" parent="1" vertex="1">
          <mxGeometry x="600.0000000000001" y="-4159.5" width="130" height="30" as="geometry" />
        </mxCell>
        <mxCell id="hfjALMgozagow-hVVYOG-333" value="&lt;font style=&quot;font-size: 14px;&quot;&gt;Sub_Category&lt;/font&gt;" style="text;html=1;align=center;verticalAlign=middle;resizable=0;points=[];autosize=1;strokeColor=none;fillColor=none;" parent="1" vertex="1">
          <mxGeometry x="810" y="-4159.5" width="110" height="30" as="geometry" />
        </mxCell>
        <mxCell id="hfjALMgozagow-hVVYOG-334" style="edgeStyle=orthogonalEdgeStyle;rounded=0;orthogonalLoop=1;jettySize=auto;html=1;exitX=0.5;exitY=1;exitDx=0;exitDy=0;" parent="1" source="hfjALMgozagow-hVVYOG-258" target="hfjALMgozagow-hVVYOG-258" edge="1">
          <mxGeometry relative="1" as="geometry" />
        </mxCell>
        <mxCell id="hfjALMgozagow-hVVYOG-309" value="product_description" style="ellipse;whiteSpace=wrap;html=1;" parent="1" vertex="1">
          <mxGeometry x="1435" y="-3607.5" width="135" height="45" as="geometry" />
        </mxCell>
        <mxCell id="hfjALMgozagow-hVVYOG-346" value="" style="endArrow=none;html=1;rounded=0;entryX=0;entryY=0.5;entryDx=0;entryDy=0;exitX=1;exitY=0.5;exitDx=0;exitDy=0;" parent="1" source="hfjALMgozagow-hVVYOG-274" target="hfjALMgozagow-hVVYOG-294" edge="1">
          <mxGeometry relative="1" as="geometry">
            <mxPoint x="740" y="-3715.1800000000003" as="sourcePoint" />
            <mxPoint x="900" y="-3715.1800000000003" as="targetPoint" />
          </mxGeometry>
        </mxCell>
        <mxCell id="hfjALMgozagow-hVVYOG-347" value="1" style="resizable=0;html=1;whiteSpace=wrap;align=right;verticalAlign=bottom;" parent="hfjALMgozagow-hVVYOG-346" connectable="0" vertex="1">
          <mxGeometry x="1" relative="1" as="geometry">
            <mxPoint x="-71" as="offset" />
          </mxGeometry>
        </mxCell>
        <mxCell id="hfjALMgozagow-hVVYOG-348" value="" style="endArrow=none;html=1;rounded=0;entryX=0;entryY=0.5;entryDx=0;entryDy=0;exitX=1;exitY=0.5;exitDx=0;exitDy=0;" parent="1" source="hfjALMgozagow-hVVYOG-294" target="hfjALMgozagow-hVVYOG-259" edge="1">
          <mxGeometry relative="1" as="geometry">
            <mxPoint x="1080" y="-3709.17" as="sourcePoint" />
            <mxPoint x="1240" y="-3709.17" as="targetPoint" />
          </mxGeometry>
        </mxCell>
        <mxCell id="hfjALMgozagow-hVVYOG-349" value="N" style="resizable=0;html=1;whiteSpace=wrap;align=right;verticalAlign=bottom;" parent="hfjALMgozagow-hVVYOG-348" connectable="0" vertex="1">
          <mxGeometry x="1" relative="1" as="geometry">
            <mxPoint x="-80" y="1" as="offset" />
          </mxGeometry>
        </mxCell>
        <mxCell id="VroDIzXgpa90KQYh0Q25-18" value="CONTAINS" style="rhombus;whiteSpace=wrap;html=1;fillColor=#D5E8D4;" parent="1" vertex="1">
          <mxGeometry x="1005" y="-3875" width="85" height="85" as="geometry" />
        </mxCell>
        <mxCell id="VroDIzXgpa90KQYh0Q25-19" value="PROMOTES" style="rhombus;whiteSpace=wrap;html=1;fillColor=#D5E8D4;" parent="1" vertex="1">
          <mxGeometry x="1003.5" y="-3644" width="85" height="85" as="geometry" />
        </mxCell>
        <mxCell id="VroDIzXgpa90KQYh0Q25-22" value="" style="endArrow=none;html=1;rounded=0;entryX=1;entryY=0.5;entryDx=0;entryDy=0;exitX=0.5;exitY=1;exitDx=0;exitDy=0;" parent="1" source="hfjALMgozagow-hVVYOG-311" target="hfjALMgozagow-hVVYOG-315" edge="1">
          <mxGeometry width="50" height="50" relative="1" as="geometry">
            <mxPoint x="705" y="-3587.5" as="sourcePoint" />
            <mxPoint x="595" y="-3582.5" as="targetPoint" />
          </mxGeometry>
        </mxCell>
        <mxCell id="VroDIzXgpa90KQYh0Q25-36" value="" style="endArrow=none;html=1;rounded=0;exitX=0.5;exitY=1;exitDx=0;exitDy=0;entryX=0;entryY=0.5;entryDx=0;entryDy=0;" parent="1" source="hfjALMgozagow-hVVYOG-252" target="VroDIzXgpa90KQYh0Q25-18" edge="1">
          <mxGeometry relative="1" as="geometry">
            <mxPoint x="1390" y="-4212.5" as="sourcePoint" />
            <mxPoint x="1570" y="-4212.5" as="targetPoint" />
            <Array as="points">
              <mxPoint x="770" y="-3832.5" />
            </Array>
          </mxGeometry>
        </mxCell>
        <mxCell id="VroDIzXgpa90KQYh0Q25-37" value="1" style="resizable=0;html=1;whiteSpace=wrap;align=right;verticalAlign=bottom;" parent="VroDIzXgpa90KQYh0Q25-36" connectable="0" vertex="1">
          <mxGeometry x="1" relative="1" as="geometry">
            <mxPoint x="-75" y="-4" as="offset" />
          </mxGeometry>
        </mxCell>
        <mxCell id="VroDIzXgpa90KQYh0Q25-38" value="" style="endArrow=none;html=1;rounded=0;entryX=0;entryY=0.25;entryDx=0;entryDy=0;exitX=1;exitY=0.5;exitDx=0;exitDy=0;" parent="1" source="VroDIzXgpa90KQYh0Q25-18" target="hfjALMgozagow-hVVYOG-259" edge="1">
          <mxGeometry relative="1" as="geometry">
            <mxPoint x="1130" y="-3822.5" as="sourcePoint" />
            <mxPoint x="1015" y="-3822.5" as="targetPoint" />
            <Array as="points">
              <mxPoint x="1090" y="-3732.5" />
            </Array>
          </mxGeometry>
        </mxCell>
        <mxCell id="VroDIzXgpa90KQYh0Q25-39" value="N" style="resizable=0;html=1;whiteSpace=wrap;align=right;verticalAlign=bottom;" parent="VroDIzXgpa90KQYh0Q25-38" connectable="0" vertex="1">
          <mxGeometry x="1" relative="1" as="geometry">
            <mxPoint x="-80" y="1" as="offset" />
          </mxGeometry>
        </mxCell>
        <mxCell id="VroDIzXgpa90KQYh0Q25-40" value="" style="endArrow=none;html=1;rounded=0;entryX=0;entryY=0.75;entryDx=0;entryDy=0;exitX=1;exitY=0.5;exitDx=0;exitDy=0;" parent="1" source="VroDIzXgpa90KQYh0Q25-19" target="hfjALMgozagow-hVVYOG-259" edge="1">
          <mxGeometry relative="1" as="geometry">
            <mxPoint x="1100" y="-3822.5" as="sourcePoint" />
            <mxPoint x="1260" y="-3722.5" as="targetPoint" />
            <Array as="points">
              <mxPoint x="1089" y="-3702.5" />
            </Array>
          </mxGeometry>
        </mxCell>
        <mxCell id="VroDIzXgpa90KQYh0Q25-41" value="1" style="resizable=0;html=1;whiteSpace=wrap;align=right;verticalAlign=bottom;" parent="VroDIzXgpa90KQYh0Q25-40" connectable="0" vertex="1">
          <mxGeometry x="1" relative="1" as="geometry">
            <mxPoint x="-80" y="3" as="offset" />
          </mxGeometry>
        </mxCell>
        <mxCell id="VroDIzXgpa90KQYh0Q25-43" value="" style="endArrow=none;html=1;rounded=0;exitX=0.5;exitY=0;exitDx=0;exitDy=0;entryX=0;entryY=0.5;entryDx=0;entryDy=0;" parent="1" source="hfjALMgozagow-hVVYOG-311" target="VroDIzXgpa90KQYh0Q25-19" edge="1">
          <mxGeometry relative="1" as="geometry">
            <mxPoint x="760" y="-3752.5" as="sourcePoint" />
            <mxPoint x="1000" y="-3602.5" as="targetPoint" />
            <Array as="points">
              <mxPoint x="774" y="-3602.5" />
            </Array>
          </mxGeometry>
        </mxCell>
        <mxCell id="VroDIzXgpa90KQYh0Q25-44" value="N" style="resizable=0;html=1;whiteSpace=wrap;align=right;verticalAlign=bottom;" parent="VroDIzXgpa90KQYh0Q25-43" connectable="0" vertex="1">
          <mxGeometry x="1" relative="1" as="geometry">
            <mxPoint x="-69" as="offset" />
          </mxGeometry>
        </mxCell>
        <mxCell id="4hEyGYkZ4LOK131lMA6i-1" value="shipping_company" style="ellipse;whiteSpace=wrap;html=1;" parent="1" vertex="1">
          <mxGeometry x="1620" y="-4055" width="120" height="50" as="geometry" />
        </mxCell>
        <mxCell id="su0P3D9kqRKAR3RtLCBr-3" value="order_item_quantity" style="ellipse;whiteSpace=wrap;html=1;" parent="1" vertex="1">
          <mxGeometry x="965" y="-3981" width="120" height="40" as="geometry" />
        </mxCell>
        <mxCell id="su0P3D9kqRKAR3RtLCBr-4" value="" style="endArrow=none;html=1;rounded=0;exitX=0;exitY=0.5;exitDx=0;exitDy=0;entryX=1;entryY=0.5;entryDx=0;entryDy=0;" parent="1" source="hfjALMgozagow-hVVYOG-222" target="su0P3D9kqRKAR3RtLCBr-3" edge="1">
          <mxGeometry width="50" height="50" relative="1" as="geometry">
            <mxPoint x="1280" y="-4001" as="sourcePoint" />
            <mxPoint x="1080" y="-4002" as="targetPoint" />
          </mxGeometry>
        </mxCell>
        <mxCell id="Uad_5lsPM06XD7m4Z8Wt-1" value="payment_method" style="ellipse;whiteSpace=wrap;html=1;" parent="1" vertex="1">
          <mxGeometry x="1180" y="-3902.5" width="120" height="40" as="geometry" />
        </mxCell>
      </root>
    </mxGraphModel>
  </diagram>
  <diagram id="R2lEEEUBdFMjLlhIrx00" name="DRAFT Page-1">
    <mxGraphModel grid="0" page="1" gridSize="10" guides="1" tooltips="1" connect="1" arrows="1" fold="1" pageScale="1" pageWidth="850" pageHeight="1100" math="0" shadow="0" extFonts="Permanent Marker^https://fonts.googleapis.com/css?family=Permanent+Marker">
      <root>
        <mxCell id="0" />
        <mxCell id="1" parent="0" />
        <mxCell id="FMM_Dqq7P8FGtwTGANTg-2" value="" style="endArrow=none;html=1;rounded=0;exitX=0.5;exitY=0;exitDx=0;exitDy=0;" edge="1" parent="1" source="FMM_Dqq7P8FGtwTGANTg-3">
          <mxGeometry width="50" height="50" relative="1" as="geometry">
            <mxPoint x="-240" y="380" as="sourcePoint" />
            <mxPoint x="-190" y="330" as="targetPoint" />
            <Array as="points" />
          </mxGeometry>
        </mxCell>
        <mxCell id="FMM_Dqq7P8FGtwTGANTg-3" value="&lt;u&gt;Customer_ID&lt;br&gt;&lt;/u&gt;" style="ellipse;whiteSpace=wrap;html=1;" vertex="1" parent="1">
          <mxGeometry x="-355" y="380" width="90" height="40" as="geometry" />
        </mxCell>
        <mxCell id="FMM_Dqq7P8FGtwTGANTg-5" style="edgeStyle=orthogonalEdgeStyle;rounded=0;orthogonalLoop=1;jettySize=auto;html=1;exitX=0.5;exitY=1;exitDx=0;exitDy=0;" edge="1" parent="1">
          <mxGeometry relative="1" as="geometry">
            <mxPoint x="-235" y="714" as="sourcePoint" />
            <mxPoint x="-235" y="714" as="targetPoint" />
          </mxGeometry>
        </mxCell>
        <mxCell id="FMM_Dqq7P8FGtwTGANTg-6" value="" style="endArrow=none;html=1;rounded=0;" edge="1" parent="1">
          <mxGeometry width="50" height="50" relative="1" as="geometry">
            <mxPoint x="-180" y="400" as="sourcePoint" />
            <mxPoint x="-130" y="330" as="targetPoint" />
          </mxGeometry>
        </mxCell>
        <mxCell id="FMM_Dqq7P8FGtwTGANTg-7" value="&lt;span style=&quot;-webkit-user-drag: none; -webkit-tap-highlight-color: transparent; margin: 0px; padding: 0px; user-select: text; text-align: left; background-color: rgb(255, 255, 255); font-size: 11pt; line-height: 19.425px; font-family: Calibri, Calibri_EmbeddedFont, Calibri_MSFontService, sans-serif; font-variant-ligatures: none !important;&quot; class=&quot;TextRun SCXW206521630 BCX9&quot; lang=&quot;EN-GB&quot; data-contrast=&quot;auto&quot;&gt;&lt;/span&gt;&lt;span style=&quot;-webkit-user-drag: none; -webkit-tap-highlight-color: transparent; margin: 0px; padding: 0px; user-select: text; text-align: left; background-color: rgb(255, 255, 255); font-size: 11pt; line-height: 19.425px; font-family: Calibri, Calibri_EmbeddedFont, Calibri_MSFontService, sans-serif; font-variant-ligatures: none !important;&quot; class=&quot;TextRun SCXW206521630 BCX9&quot; lang=&quot;EN-US&quot; data-contrast=&quot;auto&quot;&gt;&lt;span style=&quot;-webkit-user-drag: none; -webkit-tap-highlight-color: transparent; margin: 0px; padding: 0px; user-select: text;&quot; class=&quot;NormalTextRun SCXW206521630 BCX9&quot;&gt;Customer_Email&lt;/span&gt;&lt;/span&gt;" style="ellipse;whiteSpace=wrap;html=1;" vertex="1" parent="1">
          <mxGeometry x="-240" y="400" width="120" height="50" as="geometry" />
        </mxCell>
        <mxCell id="FMM_Dqq7P8FGtwTGANTg-8" value="" style="endArrow=none;html=1;rounded=0;exitX=0.226;exitY=0.119;exitDx=0;exitDy=0;exitPerimeter=0;entryX=1;entryY=0.75;entryDx=0;entryDy=0;" edge="1" parent="1" source="FMM_Dqq7P8FGtwTGANTg-9" target="FMM_Dqq7P8FGtwTGANTg-12">
          <mxGeometry width="50" height="50" relative="1" as="geometry">
            <mxPoint x="-90" y="410" as="sourcePoint" />
            <mxPoint x="-90" y="335" as="targetPoint" />
          </mxGeometry>
        </mxCell>
        <mxCell id="FMM_Dqq7P8FGtwTGANTg-9" value="Customer_Password" style="ellipse;whiteSpace=wrap;html=1;" vertex="1" parent="1">
          <mxGeometry x="10" y="340" width="140" height="80" as="geometry" />
        </mxCell>
        <mxCell id="FMM_Dqq7P8FGtwTGANTg-11" value="Customer_Phone_Number" style="ellipse;whiteSpace=wrap;html=1;" vertex="1" parent="1">
          <mxGeometry x="-425" y="280" width="160" height="40" as="geometry" />
        </mxCell>
        <mxCell id="FMM_Dqq7P8FGtwTGANTg-12" value="CUSTOMER" style="rounded=0;whiteSpace=wrap;html=1;" vertex="1" parent="1">
          <mxGeometry x="-190" y="270" width="120" height="60" as="geometry" />
        </mxCell>
        <mxCell id="FMM_Dqq7P8FGtwTGANTg-23" value="Customer_Street" style="ellipse;whiteSpace=wrap;html=1;" vertex="1" parent="1">
          <mxGeometry x="260" y="242.5" width="210" height="40" as="geometry" />
        </mxCell>
        <mxCell id="FMM_Dqq7P8FGtwTGANTg-24" value="" style="endArrow=none;html=1;rounded=0;exitX=1;exitY=0.5;exitDx=0;exitDy=0;entryX=0;entryY=0.5;entryDx=0;entryDy=0;" edge="1" parent="1" source="Vyd4xUjBUBRbaXV3fRhl-1" target="FMM_Dqq7P8FGtwTGANTg-23">
          <mxGeometry width="50" height="50" relative="1" as="geometry">
            <mxPoint x="200" y="355" as="sourcePoint" />
            <mxPoint x="250" y="265" as="targetPoint" />
          </mxGeometry>
        </mxCell>
        <mxCell id="FMM_Dqq7P8FGtwTGANTg-27" value="Customer_Postcode" style="ellipse;whiteSpace=wrap;html=1;" vertex="1" parent="1">
          <mxGeometry x="252.5" y="360" width="210" height="40" as="geometry" />
        </mxCell>
        <mxCell id="FMM_Dqq7P8FGtwTGANTg-28" value="" style="endArrow=none;html=1;rounded=0;exitX=0;exitY=0.5;exitDx=0;exitDy=0;entryX=1;entryY=0.5;entryDx=0;entryDy=0;" edge="1" parent="1" source="FMM_Dqq7P8FGtwTGANTg-27" target="Vyd4xUjBUBRbaXV3fRhl-1">
          <mxGeometry width="50" height="50" relative="1" as="geometry">
            <mxPoint x="805" y="308" as="sourcePoint" />
            <mxPoint x="855" y="258" as="targetPoint" />
          </mxGeometry>
        </mxCell>
        <mxCell id="FMM_Dqq7P8FGtwTGANTg-53" value="PRODUCT_CATEGORY" style="rounded=0;whiteSpace=wrap;html=1;" vertex="1" parent="1">
          <mxGeometry x="-266" y="1198" width="160" height="40" as="geometry" />
        </mxCell>
        <mxCell id="FMM_Dqq7P8FGtwTGANTg-54" value="" style="endArrow=none;html=1;rounded=0;entryX=0.5;entryY=1;entryDx=0;entryDy=0;exitX=0.5;exitY=0;exitDx=0;exitDy=0;" edge="1" parent="1" source="FMM_Dqq7P8FGtwTGANTg-55" target="FMM_Dqq7P8FGtwTGANTg-53">
          <mxGeometry width="50" height="50" relative="1" as="geometry">
            <mxPoint x="-311" y="1295" as="sourcePoint" />
            <mxPoint x="-261" y="1245" as="targetPoint" />
          </mxGeometry>
        </mxCell>
        <mxCell id="FMM_Dqq7P8FGtwTGANTg-55" value="&lt;u&gt;Category_ID&lt;/u&gt;" style="ellipse;whiteSpace=wrap;html=1;" vertex="1" parent="1">
          <mxGeometry x="-406" y="1335" width="110" height="40" as="geometry" />
        </mxCell>
        <mxCell id="FMM_Dqq7P8FGtwTGANTg-56" value="" style="endArrow=none;html=1;rounded=0;exitX=0.5;exitY=0;exitDx=0;exitDy=0;entryX=0.5;entryY=1;entryDx=0;entryDy=0;" edge="1" parent="1" source="FMM_Dqq7P8FGtwTGANTg-57" target="FMM_Dqq7P8FGtwTGANTg-53">
          <mxGeometry width="50" height="50" relative="1" as="geometry">
            <mxPoint x="-356" y="1370" as="sourcePoint" />
            <mxPoint x="-221" y="1245" as="targetPoint" />
          </mxGeometry>
        </mxCell>
        <mxCell id="FMM_Dqq7P8FGtwTGANTg-57" value="Parent_Category_ID" style="ellipse;whiteSpace=wrap;html=1;" vertex="1" parent="1">
          <mxGeometry x="-280" y="1335" width="130" height="40" as="geometry" />
        </mxCell>
        <mxCell id="FMM_Dqq7P8FGtwTGANTg-58" value="" style="endArrow=none;html=1;rounded=0;exitX=0.5;exitY=0;exitDx=0;exitDy=0;entryX=0.5;entryY=1;entryDx=0;entryDy=0;" edge="1" parent="1" source="FMM_Dqq7P8FGtwTGANTg-59" target="FMM_Dqq7P8FGtwTGANTg-53">
          <mxGeometry width="50" height="50" relative="1" as="geometry">
            <mxPoint x="-171" y="1365" as="sourcePoint" />
            <mxPoint x="-191" y="1245" as="targetPoint" />
          </mxGeometry>
        </mxCell>
        <mxCell id="FMM_Dqq7P8FGtwTGANTg-59" value="Category_Name" style="ellipse;whiteSpace=wrap;html=1;" vertex="1" parent="1">
          <mxGeometry x="-136" y="1335" width="105" height="40" as="geometry" />
        </mxCell>
        <mxCell id="FMM_Dqq7P8FGtwTGANTg-61" value="PRODUCTS" style="rounded=0;whiteSpace=wrap;html=1;" vertex="1" parent="1">
          <mxGeometry x="385" y="1200" width="100" height="30" as="geometry" />
        </mxCell>
        <mxCell id="FMM_Dqq7P8FGtwTGANTg-62" value="" style="endArrow=none;html=1;rounded=0;exitX=0.5;exitY=0;exitDx=0;exitDy=0;entryX=0;entryY=0;entryDx=0;entryDy=0;" edge="1" parent="1" source="FMM_Dqq7P8FGtwTGANTg-63" target="FMM_Dqq7P8FGtwTGANTg-61">
          <mxGeometry width="50" height="50" relative="1" as="geometry">
            <mxPoint x="335" y="1280" as="sourcePoint" />
            <mxPoint x="385" y="1230" as="targetPoint" />
          </mxGeometry>
        </mxCell>
        <mxCell id="FMM_Dqq7P8FGtwTGANTg-63" value="&lt;u&gt;Product_ID&lt;/u&gt;" style="ellipse;whiteSpace=wrap;html=1;" vertex="1" parent="1">
          <mxGeometry x="240" y="1087.5" width="90" height="42.5" as="geometry" />
        </mxCell>
        <mxCell id="FMM_Dqq7P8FGtwTGANTg-64" value="" style="endArrow=none;html=1;rounded=0;exitX=0.5;exitY=0;exitDx=0;exitDy=0;" edge="1" parent="1" source="FMM_Dqq7P8FGtwTGANTg-65">
          <mxGeometry width="50" height="50" relative="1" as="geometry">
            <mxPoint x="395" y="1280" as="sourcePoint" />
            <mxPoint x="390" y="1200" as="targetPoint" />
          </mxGeometry>
        </mxCell>
        <mxCell id="FMM_Dqq7P8FGtwTGANTg-65" value="Product_Name" style="ellipse;whiteSpace=wrap;html=1;" vertex="1" parent="1">
          <mxGeometry x="317.25" y="1030" width="92.5" height="50" as="geometry" />
        </mxCell>
        <mxCell id="FMM_Dqq7P8FGtwTGANTg-77" value="Product_Qty_Available" style="ellipse;whiteSpace=wrap;html=1;" vertex="1" parent="1">
          <mxGeometry x="160" y="1300" width="160" height="40" as="geometry" />
        </mxCell>
        <mxCell id="FMM_Dqq7P8FGtwTGANTg-80" value="Product_Price" style="ellipse;whiteSpace=wrap;html=1;" vertex="1" parent="1">
          <mxGeometry x="252.5" y="1360" width="120" height="40" as="geometry" />
        </mxCell>
        <mxCell id="FMM_Dqq7P8FGtwTGANTg-81" value="SHOPPING_CART" style="rounded=0;whiteSpace=wrap;html=1;" vertex="1" parent="1">
          <mxGeometry x="660" y="197.5" width="120" height="45" as="geometry" />
        </mxCell>
        <mxCell id="FMM_Dqq7P8FGtwTGANTg-82" value="" style="endArrow=none;html=1;rounded=0;exitX=0;exitY=0.5;exitDx=0;exitDy=0;entryX=1;entryY=0.5;entryDx=0;entryDy=0;" edge="1" parent="1" source="FMM_Dqq7P8FGtwTGANTg-83" target="FMM_Dqq7P8FGtwTGANTg-81">
          <mxGeometry width="50" height="50" relative="1" as="geometry">
            <mxPoint x="1035" y="465" as="sourcePoint" />
            <mxPoint x="1115" y="465" as="targetPoint" />
          </mxGeometry>
        </mxCell>
        <mxCell id="FMM_Dqq7P8FGtwTGANTg-83" value="&lt;u&gt;Cart_ID&lt;/u&gt;" style="ellipse;whiteSpace=wrap;html=1;" vertex="1" parent="1">
          <mxGeometry x="900" y="202.5" width="95" height="35" as="geometry" />
        </mxCell>
        <mxCell id="FMM_Dqq7P8FGtwTGANTg-88" value="" style="endArrow=none;html=1;rounded=0;exitX=1.001;exitY=0.585;exitDx=0;exitDy=0;exitPerimeter=0;entryX=0;entryY=0.5;entryDx=0;entryDy=0;" edge="1" parent="1" source="FMM_Dqq7P8FGtwTGANTg-12" target="Vyd4xUjBUBRbaXV3fRhl-1">
          <mxGeometry width="50" height="50" relative="1" as="geometry">
            <mxPoint x="40" y="360" as="sourcePoint" />
            <mxPoint x="90" y="310" as="targetPoint" />
          </mxGeometry>
        </mxCell>
        <mxCell id="FMM_Dqq7P8FGtwTGANTg-93" value="&lt;font style=&quot;font-size: 14px;&quot;&gt;1&lt;/font&gt;" style="text;html=1;align=center;verticalAlign=middle;resizable=0;points=[];autosize=1;strokeColor=none;fillColor=none;" vertex="1" parent="1">
          <mxGeometry x="-170" y="240" width="30" height="30" as="geometry" />
        </mxCell>
        <mxCell id="FMM_Dqq7P8FGtwTGANTg-125" value="CONTAINS" style="rhombus;whiteSpace=wrap;html=1;" vertex="1" parent="1">
          <mxGeometry x="50" y="1180" width="80" height="80" as="geometry" />
        </mxCell>
        <mxCell id="FMM_Dqq7P8FGtwTGANTg-126" value="" style="endArrow=none;html=1;rounded=0;exitX=1;exitY=0.5;exitDx=0;exitDy=0;entryX=0;entryY=0.75;entryDx=0;entryDy=0;" edge="1" parent="1" source="FMM_Dqq7P8FGtwTGANTg-125" target="FMM_Dqq7P8FGtwTGANTg-61">
          <mxGeometry width="50" height="50" relative="1" as="geometry">
            <mxPoint x="175" y="1113" as="sourcePoint" />
            <mxPoint x="370" y="1470" as="targetPoint" />
          </mxGeometry>
        </mxCell>
        <mxCell id="FMM_Dqq7P8FGtwTGANTg-135" value="" style="endArrow=none;html=1;rounded=0;exitX=0.426;exitY=-0.006;exitDx=0;exitDy=0;exitPerimeter=0;" edge="1" parent="1" source="FMM_Dqq7P8FGtwTGANTg-12">
          <mxGeometry width="50" height="50" relative="1" as="geometry">
            <mxPoint x="-140" y="140" as="sourcePoint" />
            <mxPoint x="-140" y="220" as="targetPoint" />
            <Array as="points">
              <mxPoint x="-140" y="250" />
            </Array>
          </mxGeometry>
        </mxCell>
        <mxCell id="FMM_Dqq7P8FGtwTGANTg-136" value="" style="endArrow=none;html=1;rounded=0;entryX=0;entryY=0.5;entryDx=0;entryDy=0;" edge="1" parent="1" target="FMM_Dqq7P8FGtwTGANTg-139">
          <mxGeometry width="50" height="50" relative="1" as="geometry">
            <mxPoint x="-140" y="220" as="sourcePoint" />
            <mxPoint x="800" y="210" as="targetPoint" />
          </mxGeometry>
        </mxCell>
        <mxCell id="FMM_Dqq7P8FGtwTGANTg-139" value="HAS" style="rhombus;whiteSpace=wrap;html=1;" vertex="1" parent="1">
          <mxGeometry x="485" y="180" width="80" height="80" as="geometry" />
        </mxCell>
        <mxCell id="FMM_Dqq7P8FGtwTGANTg-152" value="" style="endArrow=none;html=1;rounded=0;entryX=0;entryY=0.5;entryDx=0;entryDy=0;exitX=0.963;exitY=0.667;exitDx=0;exitDy=0;exitPerimeter=0;" edge="1" parent="1" source="FMM_Dqq7P8FGtwTGANTg-153" target="Vyd4xUjBUBRbaXV3fRhl-5">
          <mxGeometry width="50" height="50" relative="1" as="geometry">
            <mxPoint x="290" y="818" as="sourcePoint" />
            <mxPoint x="410" y="818" as="targetPoint" />
          </mxGeometry>
        </mxCell>
        <mxCell id="FMM_Dqq7P8FGtwTGANTg-153" value="&lt;u&gt;Order_ID&lt;/u&gt;" style="ellipse;whiteSpace=wrap;html=1;" vertex="1" parent="1">
          <mxGeometry x="220" y="790" width="80" height="42" as="geometry" />
        </mxCell>
        <mxCell id="FMM_Dqq7P8FGtwTGANTg-156" value="" style="endArrow=none;html=1;rounded=0;exitX=1;exitY=0.5;exitDx=0;exitDy=0;" edge="1" parent="1" source="FMM_Dqq7P8FGtwTGANTg-157">
          <mxGeometry width="50" height="50" relative="1" as="geometry">
            <mxPoint x="370" y="890" as="sourcePoint" />
            <mxPoint x="400" y="816" as="targetPoint" />
          </mxGeometry>
        </mxCell>
        <mxCell id="FMM_Dqq7P8FGtwTGANTg-157" value="Purchase_Date" style="ellipse;whiteSpace=wrap;html=1;" vertex="1" parent="1">
          <mxGeometry x="220" y="850" width="110" height="37" as="geometry" />
        </mxCell>
        <mxCell id="FMM_Dqq7P8FGtwTGANTg-160" value="" style="endArrow=none;html=1;rounded=0;exitX=1;exitY=0.5;exitDx=0;exitDy=0;entryX=0;entryY=0.5;entryDx=0;entryDy=0;" edge="1" parent="1" source="Vyd4xUjBUBRbaXV3fRhl-5" target="FMM_Dqq7P8FGtwTGANTg-161">
          <mxGeometry width="50" height="50" relative="1" as="geometry">
            <mxPoint x="530" y="840.0000000000002" as="sourcePoint" />
            <mxPoint x="560" y="880" as="targetPoint" />
          </mxGeometry>
        </mxCell>
        <mxCell id="FMM_Dqq7P8FGtwTGANTg-161" value="Order_Total_Amount" style="ellipse;whiteSpace=wrap;html=1;" vertex="1" parent="1">
          <mxGeometry x="590" y="868.75" width="160" height="37" as="geometry" />
        </mxCell>
        <mxCell id="FMM_Dqq7P8FGtwTGANTg-162" value="" style="endArrow=none;html=1;rounded=0;exitX=1;exitY=0.5;exitDx=0;exitDy=0;" edge="1" parent="1" source="Vyd4xUjBUBRbaXV3fRhl-5" target="FMM_Dqq7P8FGtwTGANTg-163">
          <mxGeometry width="50" height="50" relative="1" as="geometry">
            <mxPoint x="530" y="825.0000000000002" as="sourcePoint" />
            <mxPoint x="640" y="880" as="targetPoint" />
          </mxGeometry>
        </mxCell>
        <mxCell id="FMM_Dqq7P8FGtwTGANTg-163" value="Order_Status" style="ellipse;whiteSpace=wrap;html=1;" vertex="1" parent="1">
          <mxGeometry x="610" y="796" width="120" height="40" as="geometry" />
        </mxCell>
        <mxCell id="XaZYnuZfsvcSlc2zVnIG-2" value="" style="endArrow=none;html=1;rounded=0;" edge="1" parent="1" source="FMM_Dqq7P8FGtwTGANTg-11">
          <mxGeometry width="50" height="50" relative="1" as="geometry">
            <mxPoint x="-340" y="310" as="sourcePoint" />
            <mxPoint x="-190" y="300" as="targetPoint" />
          </mxGeometry>
        </mxCell>
        <mxCell id="H3mODtYbfMx29ymJCtI9-16" value="" style="endArrow=none;html=1;rounded=0;entryX=0.5;entryY=1;entryDx=0;entryDy=0;exitX=0.5;exitY=0;exitDx=0;exitDy=0;" edge="1" parent="1" source="FMM_Dqq7P8FGtwTGANTg-61" target="Vyd4xUjBUBRbaXV3fRhl-5">
          <mxGeometry width="50" height="50" relative="1" as="geometry">
            <mxPoint x="370" y="1470" as="sourcePoint" />
            <mxPoint x="370" y="1085" as="targetPoint" />
          </mxGeometry>
        </mxCell>
        <mxCell id="H3mODtYbfMx29ymJCtI9-18" value="" style="endArrow=none;html=1;rounded=0;exitX=0;exitY=0.5;exitDx=0;exitDy=0;entryX=1;entryY=0.5;entryDx=0;entryDy=0;" edge="1" parent="1" source="FMM_Dqq7P8FGtwTGANTg-125" target="FMM_Dqq7P8FGtwTGANTg-53">
          <mxGeometry width="50" height="50" relative="1" as="geometry">
            <mxPoint x="-90" y="1740" as="sourcePoint" />
            <mxPoint x="-60" y="1510" as="targetPoint" />
          </mxGeometry>
        </mxCell>
        <mxCell id="H3mODtYbfMx29ymJCtI9-24" value="" style="endArrow=none;html=1;rounded=0;entryX=0.5;entryY=0;entryDx=0;entryDy=0;exitX=0.5;exitY=1;exitDx=0;exitDy=0;" edge="1" parent="1" source="FMM_Dqq7P8FGtwTGANTg-61" target="FMM_Dqq7P8FGtwTGANTg-77">
          <mxGeometry width="50" height="50" relative="1" as="geometry">
            <mxPoint x="475.9544189021092" y="1274.3697121190999" as="sourcePoint" />
            <mxPoint x="150" y="1255.64" as="targetPoint" />
          </mxGeometry>
        </mxCell>
        <mxCell id="H3mODtYbfMx29ymJCtI9-25" value="" style="endArrow=none;html=1;rounded=0;entryX=0.5;entryY=0;entryDx=0;entryDy=0;exitX=0.5;exitY=1;exitDx=0;exitDy=0;" edge="1" parent="1" source="FMM_Dqq7P8FGtwTGANTg-61" target="FMM_Dqq7P8FGtwTGANTg-80">
          <mxGeometry width="50" height="50" relative="1" as="geometry">
            <mxPoint x="480" y="1200" as="sourcePoint" />
            <mxPoint x="540" y="1160" as="targetPoint" />
          </mxGeometry>
        </mxCell>
        <mxCell id="H3mODtYbfMx29ymJCtI9-30" value="" style="endArrow=none;html=1;rounded=0;entryX=0.351;entryY=0.961;entryDx=0;entryDy=0;entryPerimeter=0;" edge="1" parent="1" target="H3mODtYbfMx29ymJCtI9-31">
          <mxGeometry width="50" height="50" relative="1" as="geometry">
            <mxPoint x="-110" y="330" as="sourcePoint" />
            <mxPoint x="-60" y="220" as="targetPoint" />
          </mxGeometry>
        </mxCell>
        <mxCell id="H3mODtYbfMx29ymJCtI9-31" value="Customer_Name" style="ellipse;whiteSpace=wrap;html=1;" vertex="1" parent="1">
          <mxGeometry x="-160" y="475" width="117" height="45" as="geometry" />
        </mxCell>
        <mxCell id="H3mODtYbfMx29ymJCtI9-32" value="" style="endArrow=none;html=1;rounded=0;exitX=0;exitY=1;exitDx=0;exitDy=0;entryX=0.5;entryY=1;entryDx=0;entryDy=0;" edge="1" parent="1" source="H3mODtYbfMx29ymJCtI9-31" target="H3mODtYbfMx29ymJCtI9-33">
          <mxGeometry width="50" height="50" relative="1" as="geometry">
            <mxPoint x="-90" y="180" as="sourcePoint" />
            <mxPoint x="-80" y="160" as="targetPoint" />
          </mxGeometry>
        </mxCell>
        <mxCell id="H3mODtYbfMx29ymJCtI9-33" value="Customer_First_Name" style="ellipse;whiteSpace=wrap;html=1;" vertex="1" parent="1">
          <mxGeometry x="-304" y="540" width="150" height="60" as="geometry" />
        </mxCell>
        <mxCell id="H3mODtYbfMx29ymJCtI9-34" value="" style="endArrow=none;html=1;rounded=0;exitX=0.5;exitY=1;exitDx=0;exitDy=0;entryX=0.395;entryY=0.992;entryDx=0;entryDy=0;entryPerimeter=0;" edge="1" parent="1" source="H3mODtYbfMx29ymJCtI9-31" target="H3mODtYbfMx29ymJCtI9-35">
          <mxGeometry width="50" height="50" relative="1" as="geometry">
            <mxPoint x="-40" y="190" as="sourcePoint" />
            <mxPoint x="10" y="140" as="targetPoint" />
          </mxGeometry>
        </mxCell>
        <mxCell id="H3mODtYbfMx29ymJCtI9-35" value="Customer_Middle_Name" style="ellipse;whiteSpace=wrap;html=1;" vertex="1" parent="1">
          <mxGeometry x="-192.5" y="600" width="136" height="50" as="geometry" />
        </mxCell>
        <mxCell id="H3mODtYbfMx29ymJCtI9-36" value="" style="endArrow=none;html=1;rounded=0;exitX=1;exitY=0.5;exitDx=0;exitDy=0;" edge="1" parent="1" source="H3mODtYbfMx29ymJCtI9-31" target="H3mODtYbfMx29ymJCtI9-37">
          <mxGeometry width="50" height="50" relative="1" as="geometry">
            <mxPoint x="20" y="210" as="sourcePoint" />
            <mxPoint x="70" y="160" as="targetPoint" />
          </mxGeometry>
        </mxCell>
        <mxCell id="H3mODtYbfMx29ymJCtI9-37" value="Customer_Last_Name" style="ellipse;whiteSpace=wrap;html=1;" vertex="1" parent="1">
          <mxGeometry x="-56.5" y="560" width="143" height="60" as="geometry" />
        </mxCell>
        <mxCell id="Vyd4xUjBUBRbaXV3fRhl-1" value="Customer_Address" style="ellipse;whiteSpace=wrap;html=1;" vertex="1" parent="1">
          <mxGeometry x="80" y="280" width="110" height="37" as="geometry" />
        </mxCell>
        <mxCell id="Vyd4xUjBUBRbaXV3fRhl-2" value="" style="endArrow=none;html=1;rounded=0;entryX=0.73;entryY=0.946;entryDx=0;entryDy=0;entryPerimeter=0;exitX=0.5;exitY=0;exitDx=0;exitDy=0;" edge="1" parent="1" source="Vyd4xUjBUBRbaXV3fRhl-3" target="Vyd4xUjBUBRbaXV3fRhl-1">
          <mxGeometry width="50" height="50" relative="1" as="geometry">
            <mxPoint x="200" y="430" as="sourcePoint" />
            <mxPoint x="160" y="340" as="targetPoint" />
          </mxGeometry>
        </mxCell>
        <mxCell id="Vyd4xUjBUBRbaXV3fRhl-3" value="Customer_Country" style="ellipse;whiteSpace=wrap;html=1;" vertex="1" parent="1">
          <mxGeometry x="106" y="440" width="160" height="40" as="geometry" />
        </mxCell>
        <mxCell id="Vyd4xUjBUBRbaXV3fRhl-4" value="" style="endArrow=none;html=1;rounded=0;exitX=0;exitY=0.5;exitDx=0;exitDy=0;entryX=1;entryY=0.5;entryDx=0;entryDy=0;" edge="1" parent="1" source="FMM_Dqq7P8FGtwTGANTg-81" target="FMM_Dqq7P8FGtwTGANTg-139">
          <mxGeometry width="50" height="50" relative="1" as="geometry">
            <mxPoint x="790" y="400" as="sourcePoint" />
            <mxPoint x="840" y="320" as="targetPoint" />
          </mxGeometry>
        </mxCell>
        <mxCell id="Vyd4xUjBUBRbaXV3fRhl-5" value="ORDERS" style="rhombus;whiteSpace=wrap;html=1;" vertex="1" parent="1">
          <mxGeometry x="397.5" y="776" width="80" height="80" as="geometry" />
        </mxCell>
        <mxCell id="Vyd4xUjBUBRbaXV3fRhl-8" value="" style="endArrow=none;html=1;rounded=0;entryX=0;entryY=0;entryDx=0;entryDy=0;" edge="1" parent="1" target="Vyd4xUjBUBRbaXV3fRhl-5">
          <mxGeometry width="50" height="50" relative="1" as="geometry">
            <mxPoint x="-70" y="330" as="sourcePoint" />
            <mxPoint x="250" y="520" as="targetPoint" />
          </mxGeometry>
        </mxCell>
        <mxCell id="f_slPZiP76VuTw0vHCKc-27" value="&lt;font style=&quot;font-size: 14px;&quot;&gt;M&lt;/font&gt;" style="edgeLabel;html=1;align=center;verticalAlign=middle;resizable=0;points=[];" connectable="0" vertex="1" parent="Vyd4xUjBUBRbaXV3fRhl-8">
          <mxGeometry x="-0.5219" y="2" relative="1" as="geometry">
            <mxPoint as="offset" />
          </mxGeometry>
        </mxCell>
        <mxCell id="Vyd4xUjBUBRbaXV3fRhl-9" value="&lt;font style=&quot;font-size: 14px;&quot;&gt;1&lt;/font&gt;" style="text;html=1;align=center;verticalAlign=middle;resizable=0;points=[];autosize=1;strokeColor=none;fillColor=none;" vertex="1" parent="1">
          <mxGeometry x="627.5" y="190" width="30" height="30" as="geometry" />
        </mxCell>
        <mxCell id="Vyd4xUjBUBRbaXV3fRhl-11" value="&lt;font style=&quot;font-size: 14px;&quot;&gt;N&lt;/font&gt;" style="text;html=1;align=center;verticalAlign=middle;resizable=0;points=[];autosize=1;strokeColor=none;fillColor=none;" vertex="1" parent="1">
          <mxGeometry x="305" y="1185" width="30" height="30" as="geometry" />
        </mxCell>
        <mxCell id="Vyd4xUjBUBRbaXV3fRhl-12" value="&lt;font style=&quot;font-size: 14px;&quot;&gt;1&lt;/font&gt;" style="text;html=1;align=center;verticalAlign=middle;resizable=0;points=[];autosize=1;strokeColor=none;fillColor=none;" vertex="1" parent="1">
          <mxGeometry x="-106" y="1185" width="30" height="30" as="geometry" />
        </mxCell>
        <mxCell id="mObFauluGAlgxVE4lbNN-2" value="&lt;font style=&quot;font-size: 14px;&quot;&gt;N&lt;/font&gt;" style="text;html=1;align=center;verticalAlign=middle;resizable=0;points=[];autosize=1;strokeColor=none;fillColor=none;" vertex="1" parent="1">
          <mxGeometry x="432.5" y="1130" width="30" height="30" as="geometry" />
        </mxCell>
        <mxCell id="mObFauluGAlgxVE4lbNN-5" value="Cart_Unit_Price" style="ellipse;whiteSpace=wrap;html=1;" vertex="1" parent="1">
          <mxGeometry x="900" y="130" width="145" height="40" as="geometry" />
        </mxCell>
        <mxCell id="mObFauluGAlgxVE4lbNN-6" value="" style="endArrow=none;html=1;rounded=0;exitX=0;exitY=0.5;exitDx=0;exitDy=0;entryX=1;entryY=0.5;entryDx=0;entryDy=0;" edge="1" parent="1" source="mObFauluGAlgxVE4lbNN-5" target="FMM_Dqq7P8FGtwTGANTg-81">
          <mxGeometry width="50" height="50" relative="1" as="geometry">
            <mxPoint x="1070" y="478" as="sourcePoint" />
            <mxPoint x="1115" y="457.5" as="targetPoint" />
          </mxGeometry>
        </mxCell>
        <mxCell id="mObFauluGAlgxVE4lbNN-7" value="Cart_Unit_Quantity" style="ellipse;whiteSpace=wrap;html=1;" vertex="1" parent="1">
          <mxGeometry x="900" y="260" width="135" height="40" as="geometry" />
        </mxCell>
        <mxCell id="mObFauluGAlgxVE4lbNN-8" value="" style="endArrow=none;html=1;rounded=0;exitX=0;exitY=0.5;exitDx=0;exitDy=0;entryX=1;entryY=0.5;entryDx=0;entryDy=0;" edge="1" parent="1" source="mObFauluGAlgxVE4lbNN-7" target="FMM_Dqq7P8FGtwTGANTg-81">
          <mxGeometry width="50" height="50" relative="1" as="geometry">
            <mxPoint x="1085" y="420" as="sourcePoint" />
            <mxPoint x="1115" y="457.5" as="targetPoint" />
          </mxGeometry>
        </mxCell>
        <mxCell id="mObFauluGAlgxVE4lbNN-9" value="SUPPLIER" style="rounded=0;whiteSpace=wrap;html=1;" vertex="1" parent="1">
          <mxGeometry x="385" y="1540" width="100" height="30" as="geometry" />
        </mxCell>
        <mxCell id="mObFauluGAlgxVE4lbNN-10" value="" style="endArrow=none;html=1;rounded=0;exitX=0;exitY=0.5;exitDx=0;exitDy=0;" edge="1" parent="1" source="mObFauluGAlgxVE4lbNN-11" target="mObFauluGAlgxVE4lbNN-18">
          <mxGeometry width="50" height="50" relative="1" as="geometry">
            <mxPoint x="1130" y="1708" as="sourcePoint" />
            <mxPoint x="1160" y="1648" as="targetPoint" />
          </mxGeometry>
        </mxCell>
        <mxCell id="mObFauluGAlgxVE4lbNN-11" value="Supplier_Address_Number" style="ellipse;whiteSpace=wrap;html=1;" vertex="1" parent="1">
          <mxGeometry x="695" y="1590" width="165" height="40" as="geometry" />
        </mxCell>
        <mxCell id="mObFauluGAlgxVE4lbNN-13" value="" style="endArrow=none;html=1;rounded=0;exitX=1;exitY=0.5;exitDx=0;exitDy=0;" edge="1" parent="1" source="mObFauluGAlgxVE4lbNN-18" target="jRpCvepzpXi7OxfZ19JB-3">
          <mxGeometry width="50" height="50" relative="1" as="geometry">
            <mxPoint x="620" y="1745" as="sourcePoint" />
            <mxPoint x="705.0000000000127" y="1703" as="targetPoint" />
          </mxGeometry>
        </mxCell>
        <mxCell id="mObFauluGAlgxVE4lbNN-18" value="Supplier_Address" style="ellipse;whiteSpace=wrap;html=1;" vertex="1" parent="1">
          <mxGeometry x="500" y="1683" width="110" height="37" as="geometry" />
        </mxCell>
        <mxCell id="mObFauluGAlgxVE4lbNN-19" value="" style="endArrow=none;html=1;rounded=0;entryX=0.73;entryY=0.946;entryDx=0;entryDy=0;entryPerimeter=0;exitX=0.183;exitY=0.181;exitDx=0;exitDy=0;exitPerimeter=0;" edge="1" parent="1" source="mObFauluGAlgxVE4lbNN-20" target="mObFauluGAlgxVE4lbNN-18">
          <mxGeometry width="50" height="50" relative="1" as="geometry">
            <mxPoint x="630" y="1820" as="sourcePoint" />
            <mxPoint x="580" y="1730" as="targetPoint" />
          </mxGeometry>
        </mxCell>
        <mxCell id="mObFauluGAlgxVE4lbNN-20" value="Supplier_Country" style="ellipse;whiteSpace=wrap;html=1;" vertex="1" parent="1">
          <mxGeometry x="610" y="1800" width="110" height="50" as="geometry" />
        </mxCell>
        <mxCell id="mObFauluGAlgxVE4lbNN-21" value="&lt;u&gt;Supplier_ID&lt;br&gt;&lt;/u&gt;" style="ellipse;whiteSpace=wrap;html=1;" vertex="1" parent="1">
          <mxGeometry x="400" y="1710" width="90" height="40" as="geometry" />
        </mxCell>
        <mxCell id="mObFauluGAlgxVE4lbNN-22" value="Supplier_Name" style="ellipse;whiteSpace=wrap;html=1;" vertex="1" parent="1">
          <mxGeometry x="305" y="1760" width="90" height="40" as="geometry" />
        </mxCell>
        <mxCell id="mObFauluGAlgxVE4lbNN-23" value="Supplier_Phone" style="ellipse;whiteSpace=wrap;html=1;" vertex="1" parent="1">
          <mxGeometry x="205" y="1643" width="90" height="40" as="geometry" />
        </mxCell>
        <mxCell id="mObFauluGAlgxVE4lbNN-24" value="Supplier_Email" style="ellipse;whiteSpace=wrap;html=1;" vertex="1" parent="1">
          <mxGeometry x="190" y="1590" width="90" height="40" as="geometry" />
        </mxCell>
        <mxCell id="mObFauluGAlgxVE4lbNN-26" value="Supplier_Bank" style="ellipse;whiteSpace=wrap;html=1;" vertex="1" parent="1">
          <mxGeometry x="550" y="1590" width="90" height="40" as="geometry" />
        </mxCell>
        <mxCell id="mObFauluGAlgxVE4lbNN-25" value="Supplier_Agreement" style="ellipse;whiteSpace=wrap;html=1;" vertex="1" parent="1">
          <mxGeometry x="205" y="1700" width="115" height="50" as="geometry" />
        </mxCell>
        <mxCell id="mObFauluGAlgxVE4lbNN-29" value="" style="endArrow=none;html=1;rounded=0;entryX=0.5;entryY=1;entryDx=0;entryDy=0;exitX=0.5;exitY=0;exitDx=0;exitDy=0;" edge="1" parent="1" source="mObFauluGAlgxVE4lbNN-22" target="mObFauluGAlgxVE4lbNN-9">
          <mxGeometry width="50" height="50" relative="1" as="geometry">
            <mxPoint x="455" y="1720" as="sourcePoint" />
            <mxPoint x="468" y="1610" as="targetPoint" />
          </mxGeometry>
        </mxCell>
        <mxCell id="mObFauluGAlgxVE4lbNN-30" value="" style="endArrow=none;html=1;rounded=0;entryX=0.5;entryY=1;entryDx=0;entryDy=0;exitX=1;exitY=0;exitDx=0;exitDy=0;" edge="1" parent="1" source="mObFauluGAlgxVE4lbNN-25" target="mObFauluGAlgxVE4lbNN-9">
          <mxGeometry width="50" height="50" relative="1" as="geometry">
            <mxPoint x="385" y="1770" as="sourcePoint" />
            <mxPoint x="468" y="1610" as="targetPoint" />
          </mxGeometry>
        </mxCell>
        <mxCell id="mObFauluGAlgxVE4lbNN-31" value="" style="endArrow=none;html=1;rounded=0;entryX=0.5;entryY=1;entryDx=0;entryDy=0;exitX=1;exitY=0.5;exitDx=0;exitDy=0;" edge="1" parent="1" source="mObFauluGAlgxVE4lbNN-23" target="mObFauluGAlgxVE4lbNN-9">
          <mxGeometry width="50" height="50" relative="1" as="geometry">
            <mxPoint x="368" y="1722" as="sourcePoint" />
            <mxPoint x="468" y="1610" as="targetPoint" />
          </mxGeometry>
        </mxCell>
        <mxCell id="mObFauluGAlgxVE4lbNN-32" value="" style="endArrow=none;html=1;rounded=0;entryX=0.5;entryY=1;entryDx=0;entryDy=0;exitX=1;exitY=0.5;exitDx=0;exitDy=0;" edge="1" parent="1" source="mObFauluGAlgxVE4lbNN-24" target="mObFauluGAlgxVE4lbNN-9">
          <mxGeometry width="50" height="50" relative="1" as="geometry">
            <mxPoint x="360" y="1690" as="sourcePoint" />
            <mxPoint x="468" y="1610" as="targetPoint" />
          </mxGeometry>
        </mxCell>
        <mxCell id="mObFauluGAlgxVE4lbNN-33" value="" style="endArrow=none;html=1;rounded=0;entryX=0.5;entryY=1;entryDx=0;entryDy=0;exitX=0;exitY=0.5;exitDx=0;exitDy=0;" edge="1" parent="1" source="mObFauluGAlgxVE4lbNN-26" target="mObFauluGAlgxVE4lbNN-9">
          <mxGeometry width="50" height="50" relative="1" as="geometry">
            <mxPoint x="510" y="1712" as="sourcePoint" />
            <mxPoint x="468" y="1610" as="targetPoint" />
          </mxGeometry>
        </mxCell>
        <mxCell id="mObFauluGAlgxVE4lbNN-27" value="" style="endArrow=none;html=1;rounded=0;entryX=0.5;entryY=1;entryDx=0;entryDy=0;exitX=0;exitY=0.5;exitDx=0;exitDy=0;" edge="1" parent="1" source="mObFauluGAlgxVE4lbNN-18" target="mObFauluGAlgxVE4lbNN-9">
          <mxGeometry width="50" height="50" relative="1" as="geometry">
            <mxPoint x="646.5" y="1650" as="sourcePoint" />
            <mxPoint x="528.5" y="1580" as="targetPoint" />
          </mxGeometry>
        </mxCell>
        <mxCell id="mObFauluGAlgxVE4lbNN-28" value="" style="endArrow=none;html=1;rounded=0;entryX=0.5;entryY=1;entryDx=0;entryDy=0;exitX=0.5;exitY=0;exitDx=0;exitDy=0;" edge="1" parent="1" source="mObFauluGAlgxVE4lbNN-21" target="mObFauluGAlgxVE4lbNN-9">
          <mxGeometry width="50" height="50" relative="1" as="geometry">
            <mxPoint x="510" y="1712" as="sourcePoint" />
            <mxPoint x="468" y="1610" as="targetPoint" />
          </mxGeometry>
        </mxCell>
        <mxCell id="mObFauluGAlgxVE4lbNN-34" value="SUPPLY" style="rhombus;whiteSpace=wrap;html=1;" vertex="1" parent="1">
          <mxGeometry x="395" y="1385" width="80" height="80" as="geometry" />
        </mxCell>
        <mxCell id="mObFauluGAlgxVE4lbNN-36" value="" style="endArrow=none;html=1;rounded=0;entryX=0.5;entryY=0;entryDx=0;entryDy=0;exitX=0.5;exitY=1;exitDx=0;exitDy=0;" edge="1" parent="1" source="mObFauluGAlgxVE4lbNN-34" target="mObFauluGAlgxVE4lbNN-9">
          <mxGeometry relative="1" as="geometry">
            <mxPoint x="525" y="1520" as="sourcePoint" />
            <mxPoint x="685" y="1520" as="targetPoint" />
          </mxGeometry>
        </mxCell>
        <mxCell id="mObFauluGAlgxVE4lbNN-37" value="&lt;font style=&quot;font-size: 15px;&quot;&gt;1&lt;/font&gt;" style="resizable=0;html=1;whiteSpace=wrap;align=right;verticalAlign=bottom;" connectable="0" vertex="1" parent="mObFauluGAlgxVE4lbNN-36">
          <mxGeometry x="1" relative="1" as="geometry">
            <mxPoint x="-10" y="-21" as="offset" />
          </mxGeometry>
        </mxCell>
        <mxCell id="mObFauluGAlgxVE4lbNN-40" value="" style="endArrow=none;html=1;rounded=0;exitX=0.5;exitY=1;exitDx=0;exitDy=0;entryX=0.5;entryY=0;entryDx=0;entryDy=0;" edge="1" parent="1" source="FMM_Dqq7P8FGtwTGANTg-61" target="mObFauluGAlgxVE4lbNN-34">
          <mxGeometry relative="1" as="geometry">
            <mxPoint x="450" y="1340" as="sourcePoint" />
            <mxPoint x="610" y="1340" as="targetPoint" />
          </mxGeometry>
        </mxCell>
        <mxCell id="mObFauluGAlgxVE4lbNN-41" value="&lt;font style=&quot;font-size: 16px;&quot;&gt;N&lt;/font&gt;" style="text;html=1;align=center;verticalAlign=middle;resizable=0;points=[];autosize=1;strokeColor=none;fillColor=none;" vertex="1" parent="1">
          <mxGeometry x="405" y="1280" width="40" height="30" as="geometry" />
        </mxCell>
        <mxCell id="jRpCvepzpXi7OxfZ19JB-3" value="Supplier_Street" style="ellipse;whiteSpace=wrap;html=1;" vertex="1" parent="1">
          <mxGeometry x="720" y="1683" width="150" height="40" as="geometry" />
        </mxCell>
        <mxCell id="jRpCvepzpXi7OxfZ19JB-5" value="" style="endArrow=none;html=1;rounded=0;exitX=0;exitY=0.5;exitDx=0;exitDy=0;entryX=0.5;entryY=1;entryDx=0;entryDy=0;" edge="1" parent="1" source="mObFauluGAlgxVE4lbNN-22" target="jRpCvepzpXi7OxfZ19JB-6">
          <mxGeometry width="50" height="50" relative="1" as="geometry">
            <mxPoint x="336.75" y="1801" as="sourcePoint" />
            <mxPoint x="382.75" y="1460" as="targetPoint" />
          </mxGeometry>
        </mxCell>
        <mxCell id="jRpCvepzpXi7OxfZ19JB-6" value="Supplier_First_Name" style="ellipse;whiteSpace=wrap;html=1;" vertex="1" parent="1">
          <mxGeometry x="130" y="1880" width="149.75" height="50" as="geometry" />
        </mxCell>
        <mxCell id="jRpCvepzpXi7OxfZ19JB-9" value="" style="endArrow=none;html=1;rounded=0;exitX=1;exitY=0.5;exitDx=0;exitDy=0;" edge="1" parent="1" source="mObFauluGAlgxVE4lbNN-22" target="jRpCvepzpXi7OxfZ19JB-10">
          <mxGeometry width="50" height="50" relative="1" as="geometry">
            <mxPoint x="420" y="1790" as="sourcePoint" />
            <mxPoint x="532.75" y="1460" as="targetPoint" />
          </mxGeometry>
        </mxCell>
        <mxCell id="jRpCvepzpXi7OxfZ19JB-10" value="Supplier_Last_Name" style="ellipse;whiteSpace=wrap;html=1;" vertex="1" parent="1">
          <mxGeometry x="419.75" y="1890" width="180.25" height="50" as="geometry" />
        </mxCell>
        <mxCell id="jRpCvepzpXi7OxfZ19JB-13" value="Supplier_Postcode" style="ellipse;whiteSpace=wrap;html=1;" vertex="1" parent="1">
          <mxGeometry x="720" y="1740" width="180" height="40" as="geometry" />
        </mxCell>
        <mxCell id="jRpCvepzpXi7OxfZ19JB-14" value="" style="endArrow=none;html=1;rounded=0;exitX=0;exitY=0.5;exitDx=0;exitDy=0;" edge="1" parent="1" source="jRpCvepzpXi7OxfZ19JB-13" target="mObFauluGAlgxVE4lbNN-18">
          <mxGeometry width="50" height="50" relative="1" as="geometry">
            <mxPoint x="750" y="1790" as="sourcePoint" />
            <mxPoint x="604" y="1725" as="targetPoint" />
          </mxGeometry>
        </mxCell>
        <mxCell id="jRpCvepzpXi7OxfZ19JB-24" value="Customer_Gender" style="ellipse;whiteSpace=wrap;html=1;" vertex="1" parent="1">
          <mxGeometry x="-54" y="130" width="160" height="70" as="geometry" />
        </mxCell>
        <mxCell id="jRpCvepzpXi7OxfZ19JB-17" value="" style="endArrow=none;html=1;rounded=0;exitX=0.5;exitY=1;exitDx=0;exitDy=0;entryX=0.5;entryY=1;entryDx=0;entryDy=0;" edge="1" parent="1" source="mObFauluGAlgxVE4lbNN-22" target="jRpCvepzpXi7OxfZ19JB-18">
          <mxGeometry width="50" height="50" relative="1" as="geometry">
            <mxPoint x="460" y="1830" as="sourcePoint" />
            <mxPoint x="512.75" y="1510" as="targetPoint" />
          </mxGeometry>
        </mxCell>
        <mxCell id="jRpCvepzpXi7OxfZ19JB-25" value="" style="endArrow=none;html=1;rounded=0;exitX=0.5;exitY=1;exitDx=0;exitDy=0;entryX=1;entryY=0.5;entryDx=0;entryDy=0;" edge="1" parent="1" source="jRpCvepzpXi7OxfZ19JB-24" target="FMM_Dqq7P8FGtwTGANTg-12">
          <mxGeometry width="50" height="50" relative="1" as="geometry">
            <mxPoint x="-162" y="180" as="sourcePoint" />
            <mxPoint x="-180" y="280" as="targetPoint" />
          </mxGeometry>
        </mxCell>
        <mxCell id="jRpCvepzpXi7OxfZ19JB-18" value="Supplier_Middle_Name" style="ellipse;whiteSpace=wrap;html=1;" vertex="1" parent="1">
          <mxGeometry x="260" y="1930" width="149.75" height="50" as="geometry" />
        </mxCell>
        <mxCell id="jRpCvepzpXi7OxfZ19JB-26" value="Customer_City" style="ellipse;whiteSpace=wrap;html=1;" vertex="1" parent="1">
          <mxGeometry x="270" y="420" width="160" height="40" as="geometry" />
        </mxCell>
        <mxCell id="jRpCvepzpXi7OxfZ19JB-21" value="Customer_DOB" style="ellipse;whiteSpace=wrap;html=1;" vertex="1" parent="1">
          <mxGeometry x="-380" y="150" width="160" height="70" as="geometry" />
        </mxCell>
        <mxCell id="jRpCvepzpXi7OxfZ19JB-27" value="" style="endArrow=none;html=1;rounded=0;entryX=1;entryY=0.5;entryDx=0;entryDy=0;exitX=0;exitY=0.5;exitDx=0;exitDy=0;" edge="1" parent="1" source="jRpCvepzpXi7OxfZ19JB-26" target="Vyd4xUjBUBRbaXV3fRhl-1">
          <mxGeometry width="50" height="50" relative="1" as="geometry">
            <mxPoint x="196" y="450" as="sourcePoint" />
            <mxPoint x="170" y="343" as="targetPoint" />
          </mxGeometry>
        </mxCell>
        <mxCell id="jRpCvepzpXi7OxfZ19JB-22" value="" style="endArrow=none;html=1;rounded=0;exitX=0.5;exitY=1;exitDx=0;exitDy=0;entryX=0;entryY=0;entryDx=0;entryDy=0;" edge="1" parent="1" source="jRpCvepzpXi7OxfZ19JB-21" target="FMM_Dqq7P8FGtwTGANTg-12">
          <mxGeometry width="50" height="50" relative="1" as="geometry">
            <mxPoint x="-242" y="215" as="sourcePoint" />
            <mxPoint x="-180" y="295" as="targetPoint" />
          </mxGeometry>
        </mxCell>
        <mxCell id="nDJIEuqoTnUDfU4wcxQD-1" value="Payment_Method" style="ellipse;whiteSpace=wrap;html=1;" vertex="1" parent="1">
          <mxGeometry x="470" y="905.75" width="120" height="40" as="geometry" />
        </mxCell>
        <mxCell id="nDJIEuqoTnUDfU4wcxQD-2" value="" style="endArrow=none;html=1;rounded=0;entryX=0.5;entryY=0;entryDx=0;entryDy=0;exitX=1;exitY=0.5;exitDx=0;exitDy=0;" edge="1" parent="1" source="Vyd4xUjBUBRbaXV3fRhl-5" target="nDJIEuqoTnUDfU4wcxQD-1">
          <mxGeometry width="50" height="50" relative="1" as="geometry">
            <mxPoint x="458" y="836" as="sourcePoint" />
            <mxPoint x="620" y="889" as="targetPoint" />
          </mxGeometry>
        </mxCell>
        <mxCell id="nDJIEuqoTnUDfU4wcxQD-4" value="" style="endArrow=none;html=1;rounded=0;exitX=1;exitY=0;exitDx=0;exitDy=0;" edge="1" parent="1">
          <mxGeometry width="50" height="50" relative="1" as="geometry">
            <mxPoint x="437.5" y="776" as="sourcePoint" />
            <mxPoint x="438" y="640" as="targetPoint" />
          </mxGeometry>
        </mxCell>
        <mxCell id="aw4MljrhMl-xs16h6AFE-1" value="" style="endArrow=none;html=1;rounded=0;exitX=0;exitY=0.5;exitDx=0;exitDy=0;" edge="1" parent="1" source="Vyd4xUjBUBRbaXV3fRhl-5" target="aw4MljrhMl-xs16h6AFE-2">
          <mxGeometry width="50" height="50" relative="1" as="geometry">
            <mxPoint x="390" y="816" as="sourcePoint" />
            <mxPoint x="380" y="880" as="targetPoint" />
          </mxGeometry>
        </mxCell>
        <mxCell id="aw4MljrhMl-xs16h6AFE-2" value="Review_Rating" style="ellipse;whiteSpace=wrap;html=1;" vertex="1" parent="1">
          <mxGeometry x="240" y="920" width="120" height="40" as="geometry" />
        </mxCell>
        <mxCell id="aw4MljrhMl-xs16h6AFE-4" value="SHIPPING" style="rounded=0;whiteSpace=wrap;html=1;" vertex="1" parent="1">
          <mxGeometry x="380" y="580" width="120" height="60" as="geometry" />
        </mxCell>
        <mxCell id="aw4MljrhMl-xs16h6AFE-7" value="" style="endArrow=none;html=1;rounded=0;exitX=1;exitY=0.5;exitDx=0;exitDy=0;entryX=0;entryY=0.5;entryDx=0;entryDy=0;" edge="1" parent="1" source="aw4MljrhMl-xs16h6AFE-4" target="aw4MljrhMl-xs16h6AFE-8">
          <mxGeometry width="50" height="50" relative="1" as="geometry">
            <mxPoint x="150" y="800" as="sourcePoint" />
            <mxPoint x="550" y="610" as="targetPoint" />
          </mxGeometry>
        </mxCell>
        <mxCell id="aw4MljrhMl-xs16h6AFE-8" value="Dispatch_Date" style="ellipse;whiteSpace=wrap;html=1;" vertex="1" parent="1">
          <mxGeometry x="565" y="620" width="120" height="50" as="geometry" />
        </mxCell>
        <mxCell id="aw4MljrhMl-xs16h6AFE-9" value="" style="endArrow=none;html=1;rounded=0;entryX=0.002;entryY=0.334;entryDx=0;entryDy=0;entryPerimeter=0;exitX=1;exitY=0.5;exitDx=0;exitDy=0;" edge="1" parent="1" source="aw4MljrhMl-xs16h6AFE-4" target="aw4MljrhMl-xs16h6AFE-10">
          <mxGeometry width="50" height="50" relative="1" as="geometry">
            <mxPoint x="500" y="640" as="sourcePoint" />
            <mxPoint x="530" y="660" as="targetPoint" />
          </mxGeometry>
        </mxCell>
        <mxCell id="aw4MljrhMl-xs16h6AFE-10" value="Delivery_Date" style="ellipse;whiteSpace=wrap;html=1;" vertex="1" parent="1">
          <mxGeometry x="565" y="680" width="120" height="50" as="geometry" />
        </mxCell>
        <mxCell id="uye_uhwSKR_iQPuACroT-1" value="&lt;u&gt;Shipping_ID&lt;/u&gt;" style="ellipse;whiteSpace=wrap;html=1;" vertex="1" parent="1">
          <mxGeometry x="560" y="500" width="120" height="50" as="geometry" />
        </mxCell>
        <mxCell id="uye_uhwSKR_iQPuACroT-2" value="" style="endArrow=none;html=1;rounded=0;entryX=0;entryY=0.5;entryDx=0;entryDy=0;exitX=1;exitY=0.5;exitDx=0;exitDy=0;" edge="1" parent="1" source="aw4MljrhMl-xs16h6AFE-4" target="uye_uhwSKR_iQPuACroT-1">
          <mxGeometry width="50" height="50" relative="1" as="geometry">
            <mxPoint x="500" y="620" as="sourcePoint" />
            <mxPoint x="545" y="545" as="targetPoint" />
          </mxGeometry>
        </mxCell>
        <mxCell id="7FvdYwzFVuvg5rDRI2SJ-1" value="&lt;u&gt;Shipper_Name&lt;/u&gt;" style="ellipse;whiteSpace=wrap;html=1;" vertex="1" parent="1">
          <mxGeometry x="560" y="565" width="120" height="50" as="geometry" />
        </mxCell>
        <mxCell id="7FvdYwzFVuvg5rDRI2SJ-2" value="" style="endArrow=none;html=1;rounded=0;entryX=0;entryY=0.5;entryDx=0;entryDy=0;" edge="1" parent="1" target="7FvdYwzFVuvg5rDRI2SJ-1">
          <mxGeometry width="50" height="50" relative="1" as="geometry">
            <mxPoint x="500" y="610" as="sourcePoint" />
            <mxPoint x="545" y="605" as="targetPoint" />
          </mxGeometry>
        </mxCell>
        <mxCell id="MEUIO6Mux-654TZrBAKH-1" value="Customer_Address_Number" style="ellipse;whiteSpace=wrap;html=1;" vertex="1" parent="1">
          <mxGeometry x="252.5" y="298" width="210" height="40" as="geometry" />
        </mxCell>
        <mxCell id="MEUIO6Mux-654TZrBAKH-2" value="" style="endArrow=none;html=1;rounded=0;exitX=0;exitY=0.5;exitDx=0;exitDy=0;entryX=1;entryY=0.5;entryDx=0;entryDy=0;" edge="1" parent="1" source="MEUIO6Mux-654TZrBAKH-1" target="Vyd4xUjBUBRbaXV3fRhl-1">
          <mxGeometry width="50" height="50" relative="1" as="geometry">
            <mxPoint x="797.5" y="268" as="sourcePoint" />
            <mxPoint x="190" y="318" as="targetPoint" />
          </mxGeometry>
        </mxCell>
        <mxCell id="7FvdYwzFVuvg5rDRI2SJ-6" value="" style="endArrow=none;html=1;rounded=0;entryX=0.5;entryY=0;entryDx=0;entryDy=0;exitX=0.5;exitY=1;exitDx=0;exitDy=0;" edge="1" parent="1" source="FMM_Dqq7P8FGtwTGANTg-61" target="FMM_Dqq7P8FGtwTGANTg-70">
          <mxGeometry width="50" height="50" relative="1" as="geometry">
            <mxPoint x="480" y="1200" as="sourcePoint" />
            <mxPoint x="160" y="1320" as="targetPoint" />
          </mxGeometry>
        </mxCell>
        <mxCell id="FMM_Dqq7P8FGtwTGANTg-70" value="Product_Description" style="ellipse;whiteSpace=wrap;html=1;" vertex="1" parent="1">
          <mxGeometry x="505" y="1320" width="135" height="45" as="geometry" />
        </mxCell>
        <mxCell id="7FvdYwzFVuvg5rDRI2SJ-7" value="" style="endArrow=none;html=1;rounded=0;exitX=1;exitY=0.5;exitDx=0;exitDy=0;" edge="1" parent="1" source="FMM_Dqq7P8FGtwTGANTg-61">
          <mxGeometry width="50" height="50" relative="1" as="geometry">
            <mxPoint x="497.5" y="1220" as="sourcePoint" />
            <mxPoint x="600" y="1215" as="targetPoint" />
          </mxGeometry>
        </mxCell>
        <mxCell id="dBBr7MaCz1Bs0thiLwc_-1" value="ADS" style="rounded=0;whiteSpace=wrap;html=1;" vertex="1" parent="1">
          <mxGeometry x="892.5" y="1185" width="120" height="60" as="geometry" />
        </mxCell>
        <mxCell id="dBBr7MaCz1Bs0thiLwc_-2" value="" style="endArrow=none;html=1;rounded=0;" edge="1" parent="1">
          <mxGeometry width="50" height="50" relative="1" as="geometry">
            <mxPoint x="842.5" y="1265" as="sourcePoint" />
            <mxPoint x="892.5" y="1215" as="targetPoint" />
          </mxGeometry>
        </mxCell>
        <mxCell id="dBBr7MaCz1Bs0thiLwc_-3" value="&lt;u&gt;Ads_ID&lt;/u&gt;" style="ellipse;whiteSpace=wrap;html=1;" vertex="1" parent="1">
          <mxGeometry x="752.5" y="1255" width="120" height="80" as="geometry" />
        </mxCell>
        <mxCell id="dBBr7MaCz1Bs0thiLwc_-4" value="" style="endArrow=none;html=1;rounded=0;" edge="1" parent="1">
          <mxGeometry width="50" height="50" relative="1" as="geometry">
            <mxPoint x="892.5" y="1185" as="sourcePoint" />
            <mxPoint x="832.5" y="1135" as="targetPoint" />
          </mxGeometry>
        </mxCell>
        <mxCell id="dBBr7MaCz1Bs0thiLwc_-5" value="Ads_Description" style="ellipse;whiteSpace=wrap;html=1;" vertex="1" parent="1">
          <mxGeometry x="752.5" y="1085" width="120" height="60" as="geometry" />
        </mxCell>
        <mxCell id="dBBr7MaCz1Bs0thiLwc_-6" value="" style="endArrow=none;html=1;rounded=0;" edge="1" parent="1">
          <mxGeometry width="50" height="50" relative="1" as="geometry">
            <mxPoint x="922.5" y="1185" as="sourcePoint" />
            <mxPoint x="942.5" y="1075" as="targetPoint" />
          </mxGeometry>
        </mxCell>
        <mxCell id="dBBr7MaCz1Bs0thiLwc_-7" value="Discount_Rate" style="ellipse;whiteSpace=wrap;html=1;" vertex="1" parent="1">
          <mxGeometry x="887.5" y="1045" width="120" height="50" as="geometry" />
        </mxCell>
        <mxCell id="dBBr7MaCz1Bs0thiLwc_-8" value="" style="endArrow=none;html=1;rounded=0;entryX=0;entryY=1;entryDx=0;entryDy=0;" edge="1" parent="1" target="dBBr7MaCz1Bs0thiLwc_-9">
          <mxGeometry width="50" height="50" relative="1" as="geometry">
            <mxPoint x="1012.5" y="1185" as="sourcePoint" />
            <mxPoint x="1062.5" y="1135" as="targetPoint" />
          </mxGeometry>
        </mxCell>
        <mxCell id="dBBr7MaCz1Bs0thiLwc_-9" value="Ads_Start_Date" style="ellipse;whiteSpace=wrap;html=1;" vertex="1" parent="1">
          <mxGeometry x="1052.5" y="1085" width="120" height="60" as="geometry" />
        </mxCell>
        <mxCell id="dBBr7MaCz1Bs0thiLwc_-10" value="" style="endArrow=none;html=1;rounded=0;exitX=0;exitY=0.5;exitDx=0;exitDy=0;" edge="1" parent="1" source="dBBr7MaCz1Bs0thiLwc_-11">
          <mxGeometry width="50" height="50" relative="1" as="geometry">
            <mxPoint x="922.5" y="1295" as="sourcePoint" />
            <mxPoint x="972.5" y="1245" as="targetPoint" />
          </mxGeometry>
        </mxCell>
        <mxCell id="dBBr7MaCz1Bs0thiLwc_-11" value="Ads_End_date" style="ellipse;whiteSpace=wrap;html=1;" vertex="1" parent="1">
          <mxGeometry x="1012.5" y="1265" width="120" height="50" as="geometry" />
        </mxCell>
        <mxCell id="dBBr7MaCz1Bs0thiLwc_-12" value="PROMOTES" style="rhombus;whiteSpace=wrap;html=1;" vertex="1" parent="1">
          <mxGeometry x="600" y="1175" width="95" height="83" as="geometry" />
        </mxCell>
        <mxCell id="dBBr7MaCz1Bs0thiLwc_-14" value="" style="endArrow=none;html=1;rounded=0;entryX=0;entryY=0.5;entryDx=0;entryDy=0;" edge="1" parent="1" target="dBBr7MaCz1Bs0thiLwc_-1">
          <mxGeometry width="50" height="50" relative="1" as="geometry">
            <mxPoint x="693" y="1215" as="sourcePoint" />
            <mxPoint x="750" y="1215" as="targetPoint" />
          </mxGeometry>
        </mxCell>
        <mxCell id="dBBr7MaCz1Bs0thiLwc_-15" value="&lt;font style=&quot;font-size: 14px;&quot;&gt;N&lt;/font&gt;" style="text;html=1;align=center;verticalAlign=middle;resizable=0;points=[];autosize=1;strokeColor=none;fillColor=none;" vertex="1" parent="1">
          <mxGeometry x="862.5" y="1185" width="30" height="30" as="geometry" />
        </mxCell>
        <mxCell id="dBBr7MaCz1Bs0thiLwc_-16" value="&lt;font style=&quot;font-size: 14px;&quot;&gt;1&lt;/font&gt;" style="text;html=1;align=center;verticalAlign=middle;resizable=0;points=[];autosize=1;strokeColor=none;fillColor=none;" vertex="1" parent="1">
          <mxGeometry x="505" y="1188" width="30" height="30" as="geometry" />
        </mxCell>
        <mxCell id="dBBr7MaCz1Bs0thiLwc_-17" value="" style="endArrow=none;html=1;rounded=0;entryX=-0.01;entryY=0.492;entryDx=0;entryDy=0;entryPerimeter=0;" edge="1" parent="1" target="dBBr7MaCz1Bs0thiLwc_-19">
          <mxGeometry width="50" height="50" relative="1" as="geometry">
            <mxPoint x="-260" y="1200" as="sourcePoint" />
            <mxPoint x="-336" y="1030" as="targetPoint" />
          </mxGeometry>
        </mxCell>
        <mxCell id="dBBr7MaCz1Bs0thiLwc_-20" value="1" style="edgeLabel;html=1;align=center;verticalAlign=middle;resizable=0;points=[];" connectable="0" vertex="1" parent="dBBr7MaCz1Bs0thiLwc_-17">
          <mxGeometry x="0.7927" y="1" relative="1" as="geometry">
            <mxPoint as="offset" />
          </mxGeometry>
        </mxCell>
        <mxCell id="dBBr7MaCz1Bs0thiLwc_-22" value="&lt;font style=&quot;font-size: 14px;&quot;&gt;1&lt;/font&gt;" style="edgeLabel;html=1;align=center;verticalAlign=middle;resizable=0;points=[];" connectable="0" vertex="1" parent="dBBr7MaCz1Bs0thiLwc_-17">
          <mxGeometry x="0.7912" y="4" relative="1" as="geometry">
            <mxPoint y="1" as="offset" />
          </mxGeometry>
        </mxCell>
        <mxCell id="dBBr7MaCz1Bs0thiLwc_-18" value="" style="endArrow=none;html=1;rounded=0;entryX=0.997;entryY=0.496;entryDx=0;entryDy=0;entryPerimeter=0;exitX=0.5;exitY=0;exitDx=0;exitDy=0;" edge="1" parent="1" source="FMM_Dqq7P8FGtwTGANTg-53" target="dBBr7MaCz1Bs0thiLwc_-19">
          <mxGeometry width="50" height="50" relative="1" as="geometry">
            <mxPoint x="-236" y="1198" as="sourcePoint" />
            <mxPoint x="-176" y="1030" as="targetPoint" />
          </mxGeometry>
        </mxCell>
        <mxCell id="dBBr7MaCz1Bs0thiLwc_-21" value="&lt;font style=&quot;font-size: 14px;&quot;&gt;N&lt;/font&gt;" style="edgeLabel;html=1;align=center;verticalAlign=middle;resizable=0;points=[];" connectable="0" vertex="1" parent="dBBr7MaCz1Bs0thiLwc_-18">
          <mxGeometry x="0.7882" y="-2" relative="1" as="geometry">
            <mxPoint as="offset" />
          </mxGeometry>
        </mxCell>
        <mxCell id="dBBr7MaCz1Bs0thiLwc_-19" value="CONTAINS" style="html=1;whiteSpace=wrap;aspect=fixed;shape=isoRectangle;" vertex="1" parent="1">
          <mxGeometry x="-306" y="979" width="170" height="102" as="geometry" />
        </mxCell>
        <mxCell id="dBBr7MaCz1Bs0thiLwc_-23" value="&lt;font style=&quot;font-size: 14px;&quot;&gt;Parent_Category&lt;/font&gt;" style="text;html=1;align=center;verticalAlign=middle;resizable=0;points=[];autosize=1;strokeColor=none;fillColor=none;" vertex="1" parent="1">
          <mxGeometry x="-426" y="1057.5" width="130" height="30" as="geometry" />
        </mxCell>
        <mxCell id="dBBr7MaCz1Bs0thiLwc_-24" value="&lt;font style=&quot;font-size: 14px;&quot;&gt;Sub_Category&lt;/font&gt;" style="text;html=1;align=center;verticalAlign=middle;resizable=0;points=[];autosize=1;strokeColor=none;fillColor=none;" vertex="1" parent="1">
          <mxGeometry x="-136" y="1051" width="110" height="30" as="geometry" />
        </mxCell>
        <mxCell id="dBBr7MaCz1Bs0thiLwc_-25" style="edgeStyle=orthogonalEdgeStyle;rounded=0;orthogonalLoop=1;jettySize=auto;html=1;exitX=0.5;exitY=1;exitDx=0;exitDy=0;" edge="1" parent="1" source="FMM_Dqq7P8FGtwTGANTg-59" target="FMM_Dqq7P8FGtwTGANTg-59">
          <mxGeometry relative="1" as="geometry" />
        </mxCell>
      </root>
    </mxGraphModel>
  </diagram>
</mxfile>
